<svg version="1.1" id="Layer_1" xmlns="http://www.w3.org/2000/svg" xmlns:xlink="http://www.w3.org/1999/xlink" x="0px" y="0px" viewBox="0 0 500 500" style="width: 144px;" xml:space="preserve" data-imageid="team-brainstorming-5-28" imageName="Team Brainstorming 5" class="illustrations_image">
<style type="text/css">
	.st0_team-brainstorming-5-28{fill:#F56132;}
	.st1_team-brainstorming-5-28{fill:#093F68;}
	.st2_team-brainstorming-5-28{fill:#68E1FD;}
	.st3_team-brainstorming-5-28{fill:#FFC9B0;}
	.st4_team-brainstorming-5-28{fill:#725858;}
	.st5_team-brainstorming-5-28{fill:#FFFFFF;}
	.st6_team-brainstorming-5-28{fill:#DFEAEF;}
</style>
<g id="table_team-brainstorming-5-28">
	<path class="st0_team-brainstorming-5-28" d="M158.3,358.1h193.6c2.3,0,4.2,1.9,4.2,4.2v6.8c0,2.3-1.9,4.2-4.2,4.2H158.3c-2.3,0-4.2-1.9-4.2-4.2v-6.8&#10;&#9;&#9;C154.1,360,156,358.1,158.3,358.1z"/>
	<path class="st1_team-brainstorming-5-28" d="M348.5,375.1H161.7c-5.2,0.2-9.5-3.9-9.7-9.1s3.9-9.5,9.1-9.7c0.2,0,0.4,0,0.6,0h186.8&#10;&#9;&#9;c5.2-0.2,9.5,3.9,9.7,9.1s-3.9,9.5-9.1,9.7C348.9,375.1,348.7,375.1,348.5,375.1z M161.7,360c-3.2-0.1-5.9,2.3-6,5.5&#10;&#9;&#9;c-0.1,3.2,2.3,5.9,5.5,6c0.2,0,0.3,0,0.5,0h186.8c3.2,0.1,5.9-2.3,6-5.5c0.1-3.2-2.3-5.9-5.5-6c-0.2,0-0.3,0-0.5,0H161.7z"/>
	<rect x="184.3" y="373.3" class="st0_team-brainstorming-5-28" width="145.3" height="27.2"/>
	<path class="st1_team-brainstorming-5-28" d="M329.6,402.4H184.3c-1,0-1.8-0.8-1.8-1.8v-27.2c0-1,0.8-1.8,1.8-1.8h0h145.3c1,0,1.8,0.8,1.8,1.8c0,0,0,0,0,0&#10;&#9;&#9;v27.2C331.4,401.6,330.6,402.4,329.6,402.4z M186.1,398.7h141.7v-23.6H186.1L186.1,398.7z"/>
</g>
<g id="character-1_team-brainstorming-5-28">
	<path class="st2_team-brainstorming-5-28 targetColor" d="M107.1,339l32.6-24.9l11,11.3c0,0-25.2,32-33.8,32.8S105.2,346.9,107.1,339z" style="fill: rgb(104, 225, 253);"/>
	<path class="st1_team-brainstorming-5-28" d="M116.1,360c-2.8,0-5.5-1.2-7.2-3.4c-4-4.6-4.8-12.6-3.5-18c0.1-0.4,0.3-0.8,0.7-1l32.6-24.9&#10;&#9;&#9;c0.7-0.6,1.8-0.5,2.4,0.2l11,11.3c0.6,0.6,0.7,1.7,0.1,2.4c-2.6,3.3-25.9,32.6-35.1,33.5C116.7,360,116.4,360,116.1,360z&#10;&#9;&#9; M108.7,340c-1,5.1,0.2,11.2,2.8,14.2c1.2,1.6,3.2,2.4,5.2,2.1c5.5-0.5,21.9-18.7,31.6-30.9l-8.8-9L108.7,340z"/>
	<path class="st3_team-brainstorming-5-28" d="M85.1,288.9l13.4,0.9l0,0l-0.7,11.1c-0.1,1.8-1.7,3.2-3.5,3l-6.9-0.5c-1.8-0.1-3.2-1.7-3-3.5L85.1,288.9&#10;&#9;&#9;L85.1,288.9z"/>
	<path class="st1_team-brainstorming-5-28" d="M92,305.6h-0.5l-1.6-0.1c-4.3-0.3-7.5-4-7.2-8.2l0.6-8.4c0.1-1,0.9-1.8,1.9-1.7c0,0,0,0,0,0l13.4,0.9&#10;&#9;&#9;c1,0.1,1.8,0.9,1.7,1.9c0,0,0,0,0,0l-0.6,8.4C99.4,302.4,96.1,305.6,92,305.6z M86.7,290.8l-0.4,6.6c-0.1,2.3,1.6,4.2,3.8,4.4&#10;&#9;&#9;l1.6,0.1l0,0c1.1,0.1,2.2-0.3,3-1c0.8-0.7,1.3-1.7,1.4-2.8l0.4-6.6L86.7,290.8z"/>
	<path class="st4_team-brainstorming-5-28" d="M111,223.2c1-0.7,2.1-1.1,3.4-1.2c2.2-0.2,4.7-0.3,5.9-2.1c1.1-1.6,0.5-3.8-0.5-5.5c-2.1-3.5-5.6-5.8-9.6-6.4&#10;&#9;&#9;c1.4-0.4,2.8-1,4-1.9c1.2-0.9,1.8-2.5,1.5-3.9c-0.5-1.3-1.5-2.3-2.8-2.8c-5.1-2.7-11.2-3-16.6-0.9c1.5-1.1,2.6-2.5,3.4-4.2&#10;&#9;&#9;c0.7-1.7,0.3-3.9-1.3-4.9c-1.4-0.8-3.1-0.3-4.6,0.3c-6.2,2.6-11.2,7.4-14,13.5c-15-0.4-26.1,8-34.6,19.4c-7.7,10.3-6,23.1-2.4,34.7&#10;&#9;&#9;c5.2,16.9,18.8,27.2,18.8,27.2s22-0.5,31.6-15.5c5.2-8.1,8.4-17.6,11.3-26.7c1.3-4.1,2.6-8.3,3.7-12.5&#10;&#9;&#9;C109,227,109.2,224.6,111,223.2z"/>
	<path class="st1_team-brainstorming-5-28" d="M61.5,286.3c-0.4,0-0.8-0.1-1.1-0.4c-0.6-0.4-14-10.8-19.4-28.1c-3.1-9.9-6.1-24.4,2.7-36.3&#10;&#9;&#9;c9.9-13.3,21.6-20.1,34.9-20.2c3.1-6,8.2-10.7,14.5-13.3c0.9-0.4,3.8-1.6,6.2-0.2s3,4.8,2.1,7.1c-0.1,0.2-0.1,0.3-0.2,0.4&#10;&#9;&#9;c4.3-0.5,8.6,0.3,12.5,2.4c1.7,0.7,3,2.1,3.7,3.9c0.5,2.2-0.2,4.5-2,5.9l-0.2,0.2c2.6,1.3,4.8,3.3,6.2,5.8c1.6,2.7,1.7,5.5,0.4,7.5&#10;&#9;&#9;c-1.6,2.4-4.6,2.7-6.9,2.9h-0.3c-0.9,0-1.7,0.3-2.4,0.8l0,0c-0.9,0.7-1.3,2.2-1.7,4c-0.1,0.5-0.3,1.1-0.4,1.6&#10;&#9;&#9;c-1.2,4.3-2.4,8.6-3.7,12.5c-3,9.2-6.3,18.9-11.6,27.2C84.8,285.5,62.6,286.2,61.5,286.3L61.5,286.3z M78.8,205&#10;&#9;&#9;c-12.3,0-22.8,6.1-32.2,18.7c-5.9,8-6.6,18.5-2.1,33c4.5,14.3,15.2,23.9,17.6,25.9c3.6-0.2,21.5-2,29.5-14.6&#10;&#9;&#9;c5-7.9,8.2-17,11.2-26.3c1.3-3.9,2.5-8.1,3.7-12.4c0.1-0.5,0.3-1,0.4-1.5c0.5-2.2,1.1-4.5,2.9-6l0,0c1.3-1,2.8-1.5,4.3-1.6h0.3&#10;&#9;&#9;c1.7-0.1,3.6-0.3,4.2-1.3s0.1-2.5-0.5-3.6c-1.8-3-4.8-5-8.3-5.5c-1-0.1-1.7-1-1.6-2c0.1-0.7,0.6-1.3,1.2-1.5&#10;&#9;&#9;c1.2-0.3,2.4-0.9,3.4-1.6c0.7-0.5,1-1.3,0.9-2.1c-0.2-0.6-0.8-1.1-1.9-1.7c-4.6-2.4-10.1-2.7-15-0.8c-0.9,0.3-2-0.1-2.3-1.1&#10;&#9;&#9;c-0.2-0.7-0.1-1.4,0.4-1.9c1.2-0.9,2.2-2.1,2.9-3.5c0.4-0.9,0.2-2-0.5-2.6c-0.6-0.3-1.6-0.2-3,0.4c-5.8,2.4-10.4,6.9-13.1,12.6&#10;&#9;&#9;c-0.3,0.6-1,1-1.7,1H78.8z"/>
	<path class="st3_team-brainstorming-5-28" d="M92.2,295.5c-8.4,1.7-16.9-1.4-23.8-6c-3.6-2.4-9.2-5.1-8.6-10.2c0.4-2.2,1.3-4.2,2.7-5.9&#10;&#9;&#9;c4-5.5,5.8-10.8,8.5-16.8c3.2-7.2,6.4,1.9,7.5,4.6c0.1,0.4,0.4,0.8,0.7,1.1c0.4,0.2,0.8,0.4,1.2,0.3c1.3,0.1,2.5-0.1,3.7-0.5&#10;&#9;&#9;c0.4-0.1,0.7-0.3,0.9-0.6c0.1-0.4,0.1-0.8,0-1.2c-1.4-6.6-3.5-13.1-2.9-19.8c0.9-10.5,8.8-9.1,16.6-12c1-0.4,11.7-4.5,11.4-6.3&#10;&#9;&#9;l6.7,33.5C120.6,274.2,111,291.8,92.2,295.5z"/>
	<path class="st1_team-brainstorming-5-28" d="M87.5,297.8c-6.5,0-13.5-2.3-20.1-6.8c-0.5-0.3-1-0.7-1.5-1c-3.6-2.3-8.5-5.4-7.8-10.9c0.4-2.5,1.5-4.8,3-6.8&#10;&#9;&#9;c2.7-4,5-8.3,6.7-12.8c0.5-1.2,1.1-2.5,1.6-3.7c0.4-0.9,1.7-3.8,4.3-3.8c3,0.1,4.8,4,6.3,8l0.2,0.5c0,0.1,0.1,0.2,0.1,0.3h0.2&#10;&#9;&#9;c0.9,0,1.9-0.1,2.8-0.4c-0.3-1.4-0.6-2.8-1-4.2c-1.2-5.1-2.4-10.5-2-15.9c0.8-9.2,6.7-10.6,12.4-12c1.8-0.4,3.7-0.9,5.4-1.6&#10;&#9;&#9;c6.3-2.4,9.5-4.2,10.2-4.9c0.2-1,1.2-1.6,2.2-1.4c0.7,0.1,1.3,0.7,1.4,1.4l6.7,33.5c4.1,20.5-6.9,38.1-26.1,42l0,0&#10;&#9;&#9;C90.8,297.6,89.1,297.8,87.5,297.8z M73.7,255.8c-0.4,0.4-0.8,1-1,1.6c-0.6,1.2-1.1,2.5-1.6,3.7c-1.8,4.7-4.2,9.2-7.1,13.4&#10;&#9;&#9;c-1.2,1.5-2,3.2-2.4,5.1c-0.4,3,2.3,5,6.1,7.4c0.6,0.4,1.1,0.7,1.6,1c7.6,5.1,15.5,7.1,22.4,5.7l0,0c17.2-3.4,27-19.3,23.3-37.7&#10;&#9;&#9;l-6.1-30.3c-3.1,1.7-6.3,3.2-9.6,4.4c-1.9,0.7-3.9,1.3-5.9,1.7c-5.6,1.4-9,2.2-9.6,8.8c-0.4,4.9,0.7,9.7,1.9,14.8&#10;&#9;&#9;c0.3,1.5,0.7,3,1,4.5c0.5,1.6-0.3,3.3-1.9,3.8c-0.1,0-0.2,0.1-0.3,0.1c-1.4,0.5-2.9,0.7-4.4,0.6c-0.8,0-1.6-0.2-2.2-0.7&#10;&#9;&#9;c-0.6-0.5-1.1-1.2-1.3-1.9l-0.2-0.5C75,257.3,74.1,256.1,73.7,255.8L73.7,255.8z"/>
	<circle class="st1_team-brainstorming-5-28" cx="103.9" cy="248.1" r="3.2"/>
	<path class="st3_team-brainstorming-5-28" d="M112.4,247.8c0,0,10.7,12.3,8.7,13.3s-7.4,1.6-7.4,1.6"/>
	<path class="st1_team-brainstorming-5-28" d="M113.7,264.5c-1,0-1.8-0.9-1.8-1.9c0-0.9,0.7-1.6,1.6-1.8c1.9-0.2,3.8-0.6,5.7-1.1c-1.1-2.2-4.8-7-8.2-10.9&#10;&#9;&#9;c-0.7-0.8-0.6-1.9,0.2-2.6c0.8-0.7,1.9-0.6,2.6,0.2c10,11.5,9.5,13.8,9.4,14.6c-0.1,0.7-0.6,1.3-1.2,1.6c-2.2,1.1-7.4,1.7-7.9,1.8&#10;&#9;&#9;L113.7,264.5z M119.6,260.7L119.6,260.7z"/>
	<path class="st3_team-brainstorming-5-28" d="M73.3,252.3c0,0-9.3-4-12.3,4.2c-3,8.2,3.8,19.8,16.6,13.5"/>
	<path class="st1_team-brainstorming-5-28" d="M70.6,273.6c-2.9,0-5.7-1-7.8-2.9c-4-3.8-5.4-9.6-3.5-14.8c0.8-2.5,2.6-4.5,4.9-5.6c4.4-1.9,9.6,0.2,9.8,0.4&#10;&#9;&#9;c0.9,0.4,1.3,1.5,0.9,2.4c-0.4,0.9-1.5,1.3-2.4,0.9c-0.1,0-4-1.6-6.9-0.4c-1.5,0.7-2.5,1.9-3,3.5c-1.4,3.8-0.3,8.1,2.6,10.9&#10;&#9;&#9;c2.8,2.5,6.9,2.6,11.6,0.4c0.9-0.4,2,0,2.4,0.9c0.4,0.9,0,1.9-0.8,2.3C76,272.9,73.3,273.5,70.6,273.6z"/>
	<path class="st1_team-brainstorming-5-28" d="M91.9,245.9c-2,0-3.6-1.6-3.6-3.6c0-1.8,1.4-3.4,3.2-3.6l14-1.8c2-0.3,3.8,1.1,4.1,3c0.3,2-1.1,3.8-3,4.1&#10;&#9;&#9;c-0.1,0-0.1,0-0.2,0l-14,1.8C92.2,245.9,92.1,245.9,91.9,245.9z"/>
	<path class="st1_team-brainstorming-5-28" d="M101.1,272.3c-1.3,1.6-1.4,3.8-1.2,5.9c0,0.8,0.3,1.5,0.7,2.1c0.4,0.4,0.8,0.7,1.3,0.9&#10;&#9;&#9;c1.8,0.4,3.8-0.4,4.8-1.9c1.2-1.7,2.6-6.9,0.7-8.6C105.8,269.1,102.3,270.8,101.1,272.3z"/>
	<path class="st2_team-brainstorming-5-28 targetColor" d="M118.7,378.3l-56.5,4.1l-4-60.2c-0.7-13.9,10-25.7,23.9-26.4c0,0,0,0,0,0l6-0.3c13.9-0.7,25.7,10,26.4,23.9&#10;&#9;&#9;c0,0,0,0,0,0L118.7,378.3z" style="fill: rgb(104, 225, 253);"/>
	<path class="st1_team-brainstorming-5-28" d="M62.2,384.2c-1,0-1.8-0.7-1.8-1.7l-4-60.2C55.7,307.4,67.1,294.7,82,294c0,0,0,0,0.1,0l6-0.3&#10;&#9;&#9;c14.9-0.7,27.6,10.8,28.3,25.6l4.1,58.8c0.1,1-0.7,1.9-1.7,1.9l-56.5,4.1L62.2,384.2z M89.4,297.3c-0.4,0-0.8,0-1.2,0l-6,0.3&#10;&#9;&#9;c-12.9,0.6-22.8,11.6-22.2,24.5l3.8,58.4l52.8-3.9l-4-57C112.1,307.1,101.9,297.3,89.4,297.3z"/>
	<path class="st1_team-brainstorming-5-28" d="M180.5,400.6c-0.3-9.9-0.9-17.1-2.3-18.6c-5.1-6-57.7-7.6-57.7-7.6l-55.5,11.1c0,0,0.9,8.8,6.3,15.1H180.5z"/>
	<path class="st1_team-brainstorming-5-28" d="M180.5,402.4H71.4c-0.5,0-1-0.2-1.4-0.6c-5.7-6.7-6.7-15.7-6.7-16.1c-0.1-0.9,0.5-1.8,1.4-2l55.5-11.1&#10;&#9;&#9;c0.1,0,0.3,0,0.4,0c8.9,0.3,53.6,1.9,59,8.2c1.1,1.3,2.3,4.6,2.7,19.7C182.4,401.5,181.6,402.3,180.5,402.4&#10;&#9;&#9;C180.5,402.4,180.5,402.4,180.5,402.4L180.5,402.4z M72.3,398.7h106.4c-0.4-13.2-1.6-15.3-1.8-15.6c-3.2-3.7-34.7-6.3-56.2-6.9&#10;&#9;&#9;l-53.6,10.7C68,391.2,69.7,395.2,72.3,398.7z"/>
	<path class="st3_team-brainstorming-5-28" d="M164.4,340.1c0,0,13.3-0.7,20.3,2.3s14.4,13.3,10.7,13.7s-12.6-0.6-15.9-0.4c-1.9,0.1-12.9-0.8-12.9-0.8&#10;&#9;&#9;L164.4,340.1z"/>
	<path class="st1_team-brainstorming-5-28" d="M193.2,358c-2,0-4.5-0.1-6.9-0.3c-2.7-0.2-5.2-0.3-6.6-0.2c-2,0.1-12.1-0.8-13.2-0.9c-0.8-0.1-1.5-0.7-1.6-1.5&#10;&#9;&#9;l-2.2-14.7c-0.1-0.5,0.1-1,0.4-1.4c0.3-0.4,0.8-0.6,1.3-0.7c0.6,0,13.8-0.7,21.1,2.4c6.2,2.6,13.4,10.9,12.8,14.8&#10;&#9;&#9;c-0.2,1.3-1.2,2.3-2.6,2.4C194.8,358,194,358,193.2,358z M180.6,353.8c1.6,0,3.7,0.1,5.9,0.3c2.8,0.2,6,0.4,8,0.2&#10;&#9;&#9;c-0.8-2.3-5.5-8.2-10.5-10.3s-13.6-2.3-17.5-2.2l1.7,11.3c4.2,0.4,10.1,0.8,11.2,0.7C179.8,353.8,180.2,353.8,180.6,353.8&#10;&#9;&#9;L180.6,353.8z"/>
	<path class="st2_team-brainstorming-5-28 targetColor" d="M96.6,310.6c0,0,12.2,33.8,22.7,35.7s45-6.2,45-6.2l2.9,15.5c0,0-42.3,20.3-60.4,12s-26.3-34.8-26.3-34.8" style="fill: rgb(104, 225, 253);"/>
	<path class="st1_team-brainstorming-5-28" d="M117.8,371.3c-4,0.1-8-0.6-11.7-2.1c-18.6-8.5-27-34.8-27.3-35.9c-0.2-1,0.3-2,1.3-2.2&#10;&#9;&#9;c0.9-0.2,1.8,0.3,2.1,1.1c0.1,0.3,8.2,25.9,25.4,33.7c15.4,7,50.5-8.2,57.6-11.4l-2.3-12.2c-7.4,1.7-34.3,7.4-43.8,5.8&#10;&#9;&#9;c-11.3-1.9-22.9-33.3-24.1-36.8c-0.3-1,0.3-2,1.2-2.3c0.9-0.3,1.8,0.2,2.2,1c4.6,12.7,14.4,33.3,21.3,34.5&#10;&#9;&#9;c10.1,1.7,43.9-6.1,44.2-6.2c0.5-0.1,1,0,1.4,0.2c0.4,0.3,0.7,0.7,0.8,1.2l2.9,15.5c0.2,0.8-0.3,1.6-1,2&#10;&#9;&#9;C166.6,357.9,138.2,371.3,117.8,371.3z"/>
	<path class="st3_team-brainstorming-5-28" d="M139.7,314c0,0,5-15.3,7-14.4s1.1,7.2,1.1,7.2s8.1-11.1,10.4-10.3s7.2,4.8,6.1,8.7s-13.6,20.1-13.6,20.1&#10;&#9;&#9;L139.7,314z"/>
	<path class="st1_team-brainstorming-5-28" d="M150.7,327.2c-0.5,0-1-0.2-1.3-0.5l-11-11.3c-0.5-0.5-0.6-1.2-0.4-1.8c2.1-6.4,5.1-14.3,7.6-15.4&#10;&#9;&#9;c0.6-0.3,1.3-0.3,1.9,0c1.3,0.7,2.1,2,2.2,3.5c6.3-7.7,8.3-7,9.2-6.7c3.3,1.1,8.6,5.9,7.3,10.9c-1.1,4.1-11.8,18-14,20.7&#10;&#9;&#9;C151.8,326.9,151.3,327.2,150.7,327.2L150.7,327.2z M141.7,313.6l8.8,9c4.8-6.2,11.4-15.4,12.1-17.8s-2.8-5.6-4.7-6.4&#10;&#9;&#9;c-1.4,0.6-5.3,5-8.6,9.5c-0.6,0.8-1.7,1-2.5,0.4c-0.6-0.4-0.8-1.1-0.7-1.7c0.2-1.3,0.2-2.6,0.1-3.9&#10;&#9;&#9;C144.4,306.2,142.9,309.8,141.7,313.6L141.7,313.6z"/>
</g>
<g id="character-3_team-brainstorming-5-28">
	<path class="st3_team-brainstorming-5-28" d="M355.9,400.6v-0.1l-25.4-14.9c0,0-4.9-2.5-8.8,9.2c-0.5,1.9-0.8,3.9-0.9,5.8H355.9z"/>
	<path class="st1_team-brainstorming-5-28" d="M355.9,402.4h-35.1c-0.5,0-1-0.2-1.3-0.6c-0.3-0.4-0.5-0.9-0.5-1.4c0.1-2.1,0.4-4.2,1-6.2&#10;&#9;&#9;c1.9-5.6,4.3-9,7.2-10.2c1.3-0.6,2.9-0.6,4.2,0l25.5,14.9c0.6,0.4,1,1,0.9,1.8C357.6,401.6,356.8,402.3,355.9,402.4z M322.8,398.7&#10;&#9;&#9;h26.7l-19.7-11.5c-0.4-0.1-0.9,0-1.3,0.2c-1,0.5-3.1,2.2-5,7.9C323.1,396.4,322.9,397.6,322.8,398.7z"/>
	<path class="st2_team-brainstorming-5-28 targetColor" d="M411.2,294.2c0,0-28.9,31.5-31.5,28.5s-6-26-6-26l-14,4.4c0,0-6.6,45.2,13.8,49.8s46.3-28.3,46.3-28.3&#10;&#9;&#9;L411.2,294.2z" style="fill: rgb(104, 225, 253);"/>
	<path class="st1_team-brainstorming-5-28" d="M377.5,353c-1.5,0-2.9-0.2-4.4-0.5c-21.8-4.8-15.5-49.9-15.2-51.8c0.1-0.7,0.6-1.3,1.2-1.5l14-4.4&#10;&#9;&#9;c0.5-0.2,1.1-0.1,1.5,0.2c0.4,0.3,0.8,0.8,0.8,1.3c1.4,10,3.7,21.5,5.1,24.5c3.9-1.8,17.5-15.2,29.2-28c0.7-0.7,1.8-0.8,2.6-0.1&#10;&#9;&#9;c0.2,0.2,0.4,0.5,0.5,0.8l8.6,28.4c0.2,0.6,0.1,1.2-0.3,1.7C420.3,324.9,397.8,353,377.5,353z M361.4,302.4&#10;&#9;&#9;c-0.8,6.9-4.3,42.9,12.5,46.6c17.4,3.9,40-22.2,43.9-27l-7.4-24.4c-9,9.6-25.7,27-30.2,27l0,0c-0.7,0-1.4-0.3-1.8-0.8&#10;&#9;&#9;c-2.5-2.8-5-17.8-6.1-24.9L361.4,302.4z"/>
	<path class="st3_team-brainstorming-5-28" d="M417.9,303.9l-7.2,0.5c-1.9,0.1-3.5-1.3-3.6-3.1l0,0l-0.8-11.5l0,0l13.9-0.9l0,0l0.8,11.5&#10;&#9;&#9;C421.2,302.1,419.8,303.7,417.9,303.9L417.9,303.9L417.9,303.9z"/>
	<path class="st1_team-brainstorming-5-28" d="M413.1,306c-4.2,0-7.6-3.3-7.9-7.4l-0.6-8.7c-0.1-1,0.7-1.9,1.7-1.9c0,0,0,0,0,0l13.9-0.9&#10;&#9;&#9;c0.5,0,0.9,0.1,1.3,0.5c0.4,0.3,0.6,0.8,0.6,1.2l0.6,8.7c0.3,4.4-3,8.1-7.4,8.5l-1.7,0.1L413.1,306L413.1,306z M413.5,304.2&#10;&#9;&#9;L413.5,304.2z M408.4,291.4l0.5,6.9c0.2,2.4,2.2,4.2,4.6,4l1.7-0.1c1.2-0.1,2.2-0.6,3-1.5c0.8-0.9,1.1-2,1.1-3.1l-0.5-6.9&#10;&#9;&#9;L408.4,291.4z"/>
	<path class="st3_team-brainstorming-5-28" d="M404.8,294.8c8.6,1.7,17.5-1.4,24.6-6.2c3.7-2.5,9.5-5.3,8.9-10.5c-0.4-2.2-1.4-4.4-2.8-6.1&#10;&#9;&#9;c-3-4.1-6.4-9-7.8-14c-1.8-6.3,0.6-12.9-2.1-19.2c-4.7-10.7-19.9-11.6-29.9-12.5c-2.5-0.4-5-0.3-7.4,0.3c-6.1,1.8-5.4,9.1-6.4,14.2&#10;&#9;&#9;l-2.6,12.9C375.4,272.7,385.3,290.9,404.8,294.8z"/>
	<path class="st1_team-brainstorming-5-28" d="M409.6,297.1c-1.8,0-3.5-0.2-5.2-0.5l0,0c-9.5-1.8-17.8-7.5-22.7-15.7c-4.7-7.9-6.2-17.7-4.3-27.6l2.6-12.9&#10;&#9;&#9;c0.2-1,0.3-2.1,0.5-3.3c0.6-4.7,1.2-10.5,7.2-12.2c2.6-0.6,5.3-0.7,8-0.3l1,0.1c10.1,0.9,25.5,2.1,30.5,13.5&#10;&#9;&#9;c1.7,3.8,1.6,7.7,1.6,11.4c-0.2,2.7,0,5.4,0.6,8c1.3,4.6,4.4,9.1,7.5,13.4c1.6,2,2.7,4.4,3.1,7c0.7,5.7-4.3,8.9-8,11.2&#10;&#9;&#9;c-0.6,0.4-1.1,0.7-1.6,1C423.6,294.7,416.4,297.1,409.6,297.1z M392,227.8c-1.1,0-2.2,0.1-3.3,0.4c-3.4,1-4,4.1-4.6,9.2&#10;&#9;&#9;c-0.1,1.2-0.3,2.5-0.5,3.6l-2.6,12.9c-1.9,8.5-0.5,17.5,3.8,25.1c4.5,7.4,11.9,12.5,20.3,14l0,0c7.2,1.4,15.4-0.7,23.3-6&#10;&#9;&#9;c0.5-0.4,1.1-0.7,1.7-1.1c4-2.5,6.8-4.6,6.4-7.7c-0.4-1.9-1.2-3.8-2.5-5.3c-3.3-4.6-6.6-9.5-8.1-14.6c-0.7-3-1-6-0.8-9.1&#10;&#9;&#9;c0-3.5,0.1-6.7-1.3-9.9c-4.1-9.4-17.6-10.5-27.5-11.3l-1-0.1C394.3,227.9,393.1,227.8,392,227.8z"/>
	<path class="st3_team-brainstorming-5-28" d="M383.8,251.1c0,0-11.1,12.8-9,13.8s7.6,1.7,7.6,1.7"/>
	<path class="st1_team-brainstorming-5-28" d="M382.5,268.3h-0.2c-0.6-0.1-5.9-0.7-8.2-1.8c-0.6-0.3-1.1-0.9-1.2-1.6c-0.2-0.8-0.7-3.1,9.7-15&#10;&#9;&#9;c0.7-0.8,1.8-0.8,2.6-0.2c0.8,0.7,0.8,1.8,0.2,2.6c-3.5,4.1-7.4,9.1-8.5,11.3c2,0.5,4,0.9,6,1.1c1,0.1,1.7,1,1.6,2&#10;&#9;&#9;C384.2,267.6,383.4,268.3,382.5,268.3L382.5,268.3z"/>
	<path class="st3_team-brainstorming-5-28" d="M424.4,250.1c0,0,9.7-4.2,12.7,4.3s-3.9,20.5-17.2,13.9"/>
	<path class="st1_team-brainstorming-5-28" d="M427.1,272c-2.8-0.1-5.5-0.8-8-2.1c-0.9-0.4-1.3-1.5-0.8-2.4s1.5-1.3,2.4-0.8l0,0c4.8,2.4,9.1,2.2,12-0.4&#10;&#9;&#9;c3-2.9,4.1-7.3,2.7-11.3c-0.5-1.6-1.6-2.9-3.1-3.6c-3.1-1.3-7.1,0.3-7.2,0.4c-0.9,0.4-2,0-2.4-0.9c-0.4-0.9,0-2,0.9-2.4&#10;&#9;&#9;c0.2-0.1,5.5-2.3,10.1-0.4c2.4,1.1,4.3,3.2,5.1,5.7c1.9,5.4,0.5,11.3-3.6,15.2C432.9,271,430,272,427.1,272z"/>
	<path class="st1_team-brainstorming-5-28" d="M405.1,245.1c-0.2,0-0.3,0-0.5,0l-14.5-1.8c-2-0.2-3.5-1.9-3.3-3.9s1.9-3.5,3.9-3.3c0.1,0,0.2,0,0.2,0&#10;&#9;&#9;l14.5,1.8c2,0.3,3.4,2.1,3.1,4.1C408.4,243.8,406.9,245.2,405.1,245.1L405.1,245.1z"/>
	<circle class="st1_team-brainstorming-5-28" cx="392.4" cy="249" r="3.5"/>
	<path class="st1_team-brainstorming-5-28" d="M392.4,283.1c0.6,0.7,1.5,1,2.3,1c3.9-0.5,3.9-8.5,0.4-9.8C389,272,389.3,280.1,392.4,283.1z"/>
	<path class="st2_team-brainstorming-5-28 targetColor" d="M385.6,381.3l58.4,4.3l4.1-62.3c0.7-14.4-10.4-26.6-24.8-27.3c0,0,0,0,0,0l-6.2-0.3&#10;&#9;&#9;c-14.4-0.7-26.6,10.4-27.3,24.7c0,0,0,0,0,0L385.6,381.3z" style="fill: rgb(104, 225, 253);"/>
	<path class="st1_team-brainstorming-5-28" d="M444,387.4h-0.1l-58.4-4.3c-1-0.1-1.7-0.9-1.7-1.9l4.2-60.9c0.8-15.4,13.8-27.2,29.2-26.4l6.2,0.3&#10;&#9;&#9;c15.4,0.8,27.2,13.8,26.5,29.2l-4.1,62.3c0,0.5-0.3,0.9-0.6,1.2C444.8,387.2,444.4,387.4,444,387.4z M387.5,379.6l54.8,4l4-60.5&#10;&#9;&#9;c0.6-13.3-9.7-24.7-23-25.4l-6.2-0.3c-13.4-0.7-24.7,9.6-25.4,23L387.5,379.6z"/>
	<path class="st1_team-brainstorming-5-28" d="M437.1,400.6c2-3.7,3.3-7.7,3.9-11.9l-57.4-11.5c0,0-54.4,1.6-59.7,7.9c0,0,8.7,8.1,17,15.5H437.1z"/>
	<path class="st1_team-brainstorming-5-28" d="M437.1,402.4h-96.2c-0.4,0-0.9-0.2-1.2-0.5c-8.3-7.3-17-15.4-17.1-15.5c-0.7-0.7-0.8-1.8-0.1-2.5&#10;&#9;&#9;c5.6-6.5,51.8-8.2,61-8.5h0.4l57.4,11.5c0.9,0.2,1.6,1.1,1.5,2c-0.6,4.4-2,8.7-4.1,12.5C438.3,402,437.7,402.4,437.1,402.4z&#10;&#9;&#9; M341.6,398.7H436c1.4-2.7,2.4-5.6,2.9-8.6L383.4,379c-20.3,0.6-49.3,2.9-56.7,6.2C329.6,387.9,335.6,393.5,341.6,398.7z"/>
	<path class="st2_team-brainstorming-5-28 targetColor" d="M419.7,304.4l-45.1,28.5c-3.7-5.2-29.1-33.1-29.1-33.1l-15.6,8.6c0,0,20.4,45.1,37.1,48.8&#10;&#9;&#9;c26.1,5.7,52.7-24.3,52.7-24.3" style="fill: rgb(104, 225, 253);"/>
	<path class="st1_team-brainstorming-5-28" d="M373.7,359.6c-2.4,0-4.7-0.2-7-0.7c-17.5-3.8-37.6-47.9-38.4-49.8c-0.4-0.9-0.1-1.9,0.8-2.3l15.6-8.6&#10;&#9;&#9;c0.7-0.4,1.6-0.3,2.2,0.4c1,1.1,22.3,24.5,28.2,32l43.7-27.6c0.8-0.5,2-0.3,2.5,0.6s0.3,2-0.6,2.5l-45.1,28.5&#10;&#9;&#9;c-0.8,0.5-1.9,0.3-2.5-0.5c-3.2-4.5-23.3-26.8-28-31.9l-12.9,7.1c6.2,13.3,22.7,43.5,35.2,46.2c24.8,5.4,50.7-23.4,50.9-23.7&#10;&#9;&#9;c0.7-0.8,1.8-0.8,2.6-0.2s0.8,1.8,0.2,2.6c-5.1,5.5-10.7,10.3-16.9,14.6C393.5,355.9,383.1,359.6,373.7,359.6z"/>
	<path class="st3_team-brainstorming-5-28" d="M345.5,299.8c0,0-6-17.8-8.2-13.9c-1.3,2.3-1.3,5.1,0,7.4c0,0-16.5-6.6-19-3.6s-4.8,6.1-3.4,8.8s15,9.9,15,9.9&#10;&#9;&#9;L345.5,299.8z"/>
	<path class="st1_team-brainstorming-5-28" d="M329.9,310.1c-0.3,0-0.6-0.1-0.9-0.2c-3.3-1.8-14.2-7.7-15.8-10.6c-2.1-3.9,1.2-7.9,3.6-10.8&#10;&#9;&#9;s11.1-0.7,17.7,1.7c-0.1-1.8,0.3-3.6,1.2-5.2c0.5-1,1.5-1.6,2.6-1.5c0.9,0.1,3.7,0.3,8.9,15.7c0.3,0.8-0.1,1.7-0.9,2.2l-15.6,8.6&#10;&#9;&#9;C330.5,310.1,330.2,310.1,329.9,310.1z M320.9,290.6c-0.4,0-0.9,0-1.2,0.2c-2.1,2.6-4,5.1-3.1,6.7c0.7,1.3,7.4,5.4,13.4,8.7&#10;&#9;&#9;l13.4-7.4c-1.3-3.8-2.9-7.5-4.9-11c-0.4,1.5-0.3,3,0.4,4.4c0.4,0.7,0.3,1.5-0.2,2.1c-0.5,0.6-1.3,0.8-2,0.5&#10;&#9;&#9;C330.2,292.4,323.7,290.6,320.9,290.6L320.9,290.6z"/>
	<path class="st3_team-brainstorming-5-28" d="M373.8,296.6c0,0,5.1-18.2,1.7-17.6s-5.9,7.6-5.9,7.6s-5.7-14.9-10.8-14.7s-12,4-12.2,7.1s13.2,22,13.2,22&#10;&#9;&#9;L373.8,296.6z"/>
	<path class="st1_team-brainstorming-5-28" d="M359.8,302.9c-0.6,0-1.1-0.3-1.5-0.8c-5.1-7.3-13.7-20-13.5-23.2c0.3-4.6,8.6-8.7,13.9-8.9&#10;&#9;&#9;c4.6-0.2,8.7,7,11,12.1c1.3-2.2,3.1-4.5,5.5-4.9c0.9-0.2,1.8,0.1,2.3,0.8c2.1,2.4,0.1,11.7-2,19.1c-0.2,0.6-0.6,1.1-1.2,1.2&#10;&#9;&#9;l-14,4.4C360.2,302.8,360,302.9,359.8,302.9z M358.9,273.7L358.9,273.7c-4.9,0.2-10.3,3.9-10.4,5.4c0.2,1.8,6.3,11.5,12.1,19.8&#10;&#9;&#9;l11.8-3.7c1.5-5.3,2.6-11.4,2.6-13.9c-1.4,1.1-2.9,3.9-3.6,5.9c-0.3,0.7-0.9,1.2-1.7,1.2l0,0c-0.8,0-1.4-0.5-1.7-1.2&#10;&#9;&#9;C365.4,280.7,361.2,273.7,358.9,273.7z M373.8,296.7L373.8,296.7z"/>
	<path class="st4_team-brainstorming-5-28" d="M414.2,209.3c5.6,0.5,11.3-1,16.8,1.2c5.8,2.4,12.3,7.4,14.6,13.3c1.7,4.6,1.8,9.6,1.3,14.5&#10;&#9;&#9;s-1.5,10.4,1.2,14.5c2.5,3.9,7.8,5.6,9.7,9.9c3.9,8.6-8.8,18.4-4.8,27c1.1,2.3,3.1,3.9,4.7,5.8c2.3,2.6,3.5,6.1,3.2,9.6&#10;&#9;&#9;c-0.5,5.2-4.7,7.2-8.5,9.9c-5.9,4.2-12.9,6.7-20.1,7.3c-8.4,0.9-21.6,1.5-28.6-3.9c-4-3-6.3-8.5-4.3-13.1c0.9-2,2.4-3.6,2.9-5.6&#10;&#9;&#9;c0.9-3.4-1.2-6.7-1.8-10.2c-0.5-3,0.1-6,1.7-8.6c1.6-2.6,4.3-4.6,5.2-7.5c1.3-4.3-1.8-8.9-1.1-13.3c0.6-3.8,3.6-6.6,5.9-9.6&#10;&#9;&#9;c3.2-4.2,3-10-0.4-13.9c-2.3-2.7-7.1-2.8-10.3-3c-1.8-0.1-11-6.3-9.8-8.2c-1.5,2.4-4.5,3.3-7.2,4c-0.3,0.1-0.6,0.1-0.7-0.2&#10;&#9;&#9;c0-0.1,0-0.2,0-0.2C385.7,215.9,402.3,208.3,414.2,209.3z"/>
	<path class="st1_team-brainstorming-5-28" d="M422.3,324.7c-9,0-15.5-1.6-19.8-4.8s-7.3-9.6-4.9-15.2c0.4-0.9,0.9-1.7,1.4-2.5c0.6-0.9,1.1-1.8,1.4-2.8&#10;&#9;&#9;c0.5-1.7-0.2-3.7-0.8-5.7c-0.4-1.2-0.7-2.4-1-3.7c-0.6-3.4,0.1-6.9,2-9.9c0.7-1,1.4-2,2.2-2.9c1.2-1.2,2.1-2.6,2.7-4.2&#10;&#9;&#9;c0.5-1.9,0-3.9-0.5-6.1c-0.7-2.3-0.9-4.6-0.7-7c0.5-3.4,2.6-5.9,4.6-8.3c0.6-0.7,1.1-1.4,1.7-2.1c2.7-3.5,2.5-8.4-0.4-11.7&#10;&#9;&#9;c-1.6-1.9-5.5-2.1-8.3-2.3h-0.8c-2.1-0.1-7.8-3.9-10.3-6.8c-1.9,1.2-4,2.1-6.2,2.6c-1.2,0.4-2.5-0.2-2.9-1.4c0,0,0,0,0,0&#10;&#9;&#9;c-0.1-0.3-0.1-0.7-0.1-1.1c2.2-14.7,20.4-22.3,32.5-21.3c1.9,0.1,3.8,0.1,5.6,0c3.8-0.1,7.8-0.3,11.7,1.3c5.5,2.2,13,7.4,15.6,14.4&#10;&#9;&#9;c1.6,4.2,2,9.1,1.4,15.3l-0.2,1.6c-0.5,4.2-1,8.6,1.1,11.8c1.2,1.6,2.6,2.9,4.2,4c2.2,1.7,4.4,3.4,5.6,6.1c2.3,5.1-0.1,10.1-2.5,15&#10;&#9;&#9;c-2.1,4.3-4,8.4-2.4,12c0.7,1.3,1.6,2.5,2.8,3.5c0.6,0.6,1.2,1.2,1.7,1.9c2.6,3,3.9,6.9,3.6,10.9c-0.5,5.2-4.2,7.8-7.4,10&#10;&#9;&#9;c-0.6,0.4-1.2,0.8-1.7,1.2c-6.2,4.4-13.4,7-21,7.6C428.8,324.5,425.4,324.7,422.3,324.7z M393.4,225.8c0.9,1.7,6.8,5.7,8.2,6h0.7&#10;&#9;&#9;c3.5,0.2,8.2,0.5,10.8,3.6c4,4.6,4.2,11.4,0.5,16.2c-0.6,0.8-1.2,1.5-1.8,2.2c-1.8,2.2-3.5,4.2-3.8,6.6c-0.1,1.9,0.1,3.8,0.6,5.6&#10;&#9;&#9;c0.6,2.6,1.2,5.2,0.4,8c-0.7,2.1-1.9,4-3.5,5.5c-0.7,0.8-1.3,1.6-1.9,2.5c-1.4,2.2-1.9,4.8-1.5,7.3c0.2,1.1,0.5,2.2,0.9,3.2&#10;&#9;&#9;c0.7,2.3,1.6,5,0.9,7.7c-0.4,1.4-1.1,2.7-1.9,3.8c-0.4,0.7-0.8,1.3-1.2,2.1c-1.7,3.8,0.6,8.5,3.7,10.9c4.9,3.7,14.1,4.9,27.4,3.5&#10;&#9;&#9;c6.9-0.6,13.5-3,19.2-7l1.8-1.3c3.1-2.1,5.5-3.8,5.9-7.4c0.2-3-0.8-6-2.8-8.2c-0.5-0.6-1-1.1-1.5-1.7c-1.4-1.3-2.5-2.8-3.4-4.5&#10;&#9;&#9;c-2.4-5.1,0.1-10.1,2.4-15c2.1-4.3,4-8.4,2.4-11.9c-0.9-1.9-2.7-3.3-4.6-4.8c-1.9-1.3-3.6-3-5-4.9c-2.8-4.3-2.2-9.5-1.6-14.2&#10;&#9;&#9;l0.2-1.5c0.6-5.6,0.2-10-1.2-13.6c-2.1-5.6-8.3-10.2-13.6-12.3c-3.2-1.3-6.6-1.2-10.2-1.1c-2,0.1-4,0.1-6.1,0l0,0&#10;&#9;&#9;c-9.7-0.8-24.7,5-28.1,16c1.6-0.4,3.1-1.3,4.1-2.7l0,0c0.5-0.8,1.7-1.1,2.5-0.6C393.3,224.4,393.6,225.2,393.4,225.8L393.4,225.8z"/>
</g>
<g id="character-2_team-brainstorming-5-28">
	<path class="st2_team-brainstorming-5-28 targetColor" d="M307.3,316.8v41.1h-76.2v-30.7c0,0-28.7,12.2-34.7,5.9c-16.9-17.7-16.6-58.8-16.6-58.8l17.8-3.1l13.7,38.6&#10;&#9;&#9;c0,0,22.5-9.8,36.4-15.6c15.1-6.3,19.7-3.1,19.7-3.1l26.1,7.4C301.7,300.8,307.3,308.3,307.3,316.8z" style="fill: rgb(104, 225, 253);"/>
	<path class="st1_team-brainstorming-5-28" d="M307.3,359.7h-76.2c-1,0-1.8-0.8-1.8-1.8v-28c-8.1,3.2-28.4,10.5-34.2,4.5c-17.2-18-17.1-58.3-17.1-60&#10;&#9;&#9;c0-0.9,0.6-1.6,1.5-1.8l17.8-3.1c0.9-0.1,1.7,0.4,2,1.2l13,36.8c5.6-2.4,23.1-10,34.6-14.8c14-5.8,19.7-3.9,21.1-3.2l26,7.4&#10;&#9;&#9;c8.9,2.6,15.1,10.7,15.1,20v41.1C309.1,358.8,308.3,359.7,307.3,359.7z M233,356h72.6v-39.2c0-7.7-5.2-14.4-12.6-16.5l-26.1-7.4&#10;&#9;&#9;c-0.2-0.1-0.4-0.1-0.5-0.2l0,0c0,0-4.5-2.3-18,3.3c-13.8,5.7-36.1,15.5-36.4,15.6c-0.5,0.2-1,0.2-1.4,0c-0.5-0.2-0.8-0.6-1-1.1&#10;&#9;&#9;l-13.2-37.1l-14.7,2.5c0.2,7.5,1.7,40.9,16.1,56c3.6,3.7,21.3-1.5,32.7-6.3c0.9-0.4,2,0,2.4,1c0.1,0.2,0.1,0.5,0.1,0.7L233,356z"/>
	<path class="st4_team-brainstorming-5-28" d="M261.6,201c1.5,1.5,2.7,3.4,3.2,5.4c7-6,17.7-6.6,26.1-2.9s14.9,11.2,19,19.4c3.7,7.4,4.5,15.9,4.6,24.1&#10;&#9;&#9;s-2,15.7-1.8,23.9c0.1,2.9-0.3,3.4-3.1,3.9c-2.6,0.4-5.5,0-8,0h-63.4c-0.9,0-13.6,0.5-13.8,0c-0.5-1.7,0.3-3.8,0.4-5.5&#10;&#9;&#9;c0.2-5.9-1.8-12.5-2.1-18.6c-0.5-9.3-2.3-17.5,1.5-26.3c3.8-8.8,9.8-16.4,17.4-22.3c3.2-2.5,7-4.7,11.1-4.8&#10;&#9;&#9;C256,197.3,259.2,198.6,261.6,201z"/>
	<path class="st1_team-brainstorming-5-28" d="M227.8,276.8c-4.8,0-4.9-0.4-5.2-1.6c-0.3-1.4-0.3-2.9,0.1-4.4c0.1-0.5,0.2-1.1,0.2-1.6c0-3.4-0.3-6.9-1-10.2&#10;&#9;&#9;c-0.5-2.7-0.8-5.4-1-8.2c-0.1-1.9-0.2-3.8-0.4-5.6c-0.6-7.3-1.2-14.1,2.1-21.5c3.9-9.1,10.1-17,18-23c2.8-2.1,7.1-5,12.1-5.2&#10;&#9;&#9;c3.8-0.1,7.5,1.4,10.2,4.1l0,0c1.1,1.1,2.1,2.4,2.8,3.8c7.1-4.8,17.3-5.5,26-1.6c8.1,3.5,15.1,10.8,19.9,20.3&#10;&#9;&#9;c4.1,8.3,4.7,17.6,4.8,24.9c0,4-0.3,8-0.9,11.9c-0.6,3.9-0.9,7.9-0.9,11.9c0.1,3.5-0.6,5.1-4.7,5.7c-1.9,0.2-3.8,0.2-5.8,0.1&#10;&#9;&#9;c-0.9,0-1.7-0.1-2.5-0.1h-63.4h-1.5C232.7,276.8,229.8,276.8,227.8,276.8z M226.1,274.2C226.1,274.2,226.1,274.2,226.1,274.2&#10;&#9;&#9;C226.1,274.3,226.1,274.2,226.1,274.2L226.1,274.2z M226,273.2c1.7,0.1,5.2,0,10.5-0.2l1.6,0h63.4c0.9,0,1.8,0,2.7,0.1&#10;&#9;&#9;c1.7,0.1,3.4,0.1,5.1-0.1c0.5,0,1-0.1,1.5-0.4c0.1-0.5,0.1-1.1,0-1.6c0-4.2,0.3-8.3,0.9-12.5c0.6-3.8,0.9-7.6,0.9-11.4&#10;&#9;&#9;c-0.1-6.9-0.6-15.7-4.4-23.3c-4.4-8.8-10.8-15.4-18.1-18.6c-8.4-3.7-18.1-2.6-24.2,2.6c-0.8,0.7-1.9,0.6-2.6-0.2&#10;&#9;&#9;c-0.2-0.2-0.3-0.5-0.4-0.7c-0.5-1.8-1.4-3.3-2.7-4.6l0,0c-2-2-4.7-3.1-7.6-3.1c-3.9,0.1-7.6,2.6-10,4.4&#10;&#9;&#9;c-7.3,5.6-13.1,13.1-16.8,21.6c-2.9,6.6-2.4,12.7-1.8,19.8c0.1,1.9,0.3,3.7,0.4,5.7c0.2,2.6,0.5,5.2,1,7.8c0.7,3.6,1.1,7.3,1.1,11&#10;&#9;&#9;c0,0.7-0.1,1.4-0.3,2.1C226.2,272.1,226.1,272.6,226,273.2L226,273.2z"/>
	<path class="st3_team-brainstorming-5-28" d="M261.2,303.6h12.5l0,0v9.5c0,1.6-1.3,2.9-2.9,2.9h-6.6c-1.6,0-2.9-1.3-2.9-2.9v0L261.2,303.6L261.2,303.6z"/>
	<path class="st1_team-brainstorming-5-28" d="M268.3,317.9h-1.9c-3.9,0-7.1-3.2-7.1-7.1v-7.2c0-1,0.8-1.8,1.8-1.8h12.5c1,0,1.8,0.8,1.8,1.8v7.2&#10;&#9;&#9;C275.4,314.7,272.3,317.8,268.3,317.9z M263,305.4v5.4c0,1.9,1.5,3.5,3.5,3.5c0,0,0,0,0,0h1.9c1.9,0,3.5-1.6,3.5-3.5c0,0,0,0,0,0&#10;&#9;&#9;v-5.4H263z"/>
	<ellipse class="st3_team-brainstorming-5-28" cx="233.9" cy="271.2" rx="11.4" ry="10.4"/>
	<path class="st1_team-brainstorming-5-28" d="M233.9,283.5c-7.3,0-13.2-5.5-13.2-12.2s5.9-12.2,13.2-12.2s13.2,5.5,13.2,12.2S241.1,283.5,233.9,283.5z&#10;&#9;&#9; M233.9,262.6c-5.3,0-9.6,3.9-9.6,8.6s4.3,8.6,9.6,8.6s9.6-3.9,9.6-8.6S239.1,262.6,233.9,262.6L233.9,262.6z"/>
	<ellipse class="st3_team-brainstorming-5-28" cx="300.3" cy="271.2" rx="11.4" ry="10.4"/>
	<path class="st1_team-brainstorming-5-28" d="M300.3,283.5c-7.3,0-13.2-5.5-13.2-12.2S293,259,300.3,259s13.2,5.5,13.2,12.2S307.6,283.5,300.3,283.5z&#10;&#9;&#9; M300.3,262.6c-5.3,0-9.6,3.9-9.6,8.6s4.3,8.6,9.6,8.6s9.6-3.9,9.6-8.6S305.6,262.6,300.3,262.6L300.3,262.6z"/>
	<path class="st3_team-brainstorming-5-28" d="M267.4,305.2c-11.5,0-22.4-5.5-29.3-14.7c-7.7-10.3-8-22.7-5.6-34.8c1.2-5.8,3-7.9,7.9-10.2&#10;&#9;&#9;c5.7-2.7,11.1-7.5,15.5-11.8c-1.2,7.1-4.7,13.7-9.8,18.8c6.7-0.7,13.6-1.4,19.9-3.8c7.1-2.7,13.2-7.3,19.2-11.9l-9.5,20.4&#10;&#9;&#9;c4.9-3.2,10.2-5.9,15.6-8.1c0.8-0.3,12.6-3.9,12.6-3.3v23C303.9,288.9,287.5,305.2,267.4,305.2z"/>
	<path class="st1_team-brainstorming-5-28" d="M267.4,307c-12.1,0-23.5-5.7-30.7-15.4c-7-9.4-8.9-21.3-5.9-36.3c1.2-6.2,3.3-8.9,8.9-11.5s11-7.5,15-11.5&#10;&#9;&#9;c0.7-0.7,1.9-0.7,2.6,0c0.4,0.4,0.6,1,0.5,1.6c-1,5.9-3.5,11.4-7.1,16.2c5.1-0.4,10-1.5,14.8-3.2c6.9-2.6,12.9-7.2,18.7-11.6&#10;&#9;&#9;c0.8-0.6,1.9-0.5,2.5,0.3c0.4,0.5,0.5,1.3,0.2,1.9l-7,15c3.5-2,7-3.7,10.7-5.2c0.1-0.1,12.5-4.4,14.3-3.1c0.5,0.4,0.8,0.9,0.8,1.6&#10;&#9;&#9;v23C305.6,289.9,288.5,307,267.4,307z M252.5,239.2c-3.4,3.1-7.2,5.7-11.4,7.8c-4.6,2.1-5.9,3.8-6.9,9c-2.8,13.9-1.1,24.9,5.3,33.4&#10;&#9;&#9;c11.4,15.4,33.2,18.6,48.5,7.1c8.8-6.5,14-16.9,14-27.8v-20.9c-3.1,0.7-9.3,2.6-10.1,2.9c-5.3,2.2-10.4,4.9-15.3,8&#10;&#9;&#9;c-0.8,0.5-2,0.3-2.5-0.6c-0.3-0.5-0.4-1.2-0.1-1.7l6.5-13.9c-4.2,3.2-8.9,5.8-13.8,7.8c-6.6,2.5-13.6,3.2-20.3,3.9&#10;&#9;&#9;c-0.8,0.1-1.5-0.3-1.8-1c-0.3-0.7-0.2-1.5,0.4-2.1C248.2,247.8,250.9,243.7,252.5,239.2L252.5,239.2z"/>
	<path class="st1_team-brainstorming-5-28" d="M264,282.7c-1.1,0-2.3-0.1-3.4-0.3c-1-0.2-1.6-1.1-1.5-2.1s1.1-1.6,2.1-1.5c1.4,0.2,2.7,0.3,4.1,0.2&#10;&#9;&#9;c-0.6-2.4-1.5-4.8-2.7-7c-0.5-0.9-0.1-2,0.8-2.4c0.9-0.5,2-0.1,2.4,0.8c1.9,3.6,3.9,8.4,2.9,10.6c-0.3,0.7-1,1.3-1.7,1.5&#10;&#9;&#9;C266,282.6,265,282.7,264,282.7z"/>
	<circle class="st1_team-brainstorming-5-28" cx="277.8" cy="270.3" r="3.7"/>
	<circle class="st1_team-brainstorming-5-28" cx="245.2" cy="267.5" r="3.7"/>
	<path class="st1_team-brainstorming-5-28" d="M276.2,264c-2,0-3.6-1.6-3.7-3.6c0-2,1.6-3.6,3.6-3.7l17.6-0.4h0.1c2,0,3.6,1.6,3.7,3.6s-1.6,3.6-3.6,3.7&#10;&#9;&#9;L276.2,264L276.2,264z"/>
	<path class="st1_team-brainstorming-5-28" d="M258.4,263h-0.2l-17.6-1c-2,0-3.6-1.6-3.6-3.6c0-2,1.6-3.6,3.6-3.6c0.1,0,0.2,0,0.4,0l17.6,1&#10;&#9;&#9;c2,0.1,3.5,1.9,3.4,3.9C261.8,261.5,260.3,263,258.4,263L258.4,263z"/>
	<path class="st1_team-brainstorming-5-28" d="M261.9,287.4h-0.1c-1.7-0.1-1.8,3.2-1.9,4.3c-0.2,2.4,0.6,4.7,2.4,6.3c0.8,0.7,1.8,1.2,2.9,1.3&#10;&#9;&#9;c2,0.1,3.8-0.8,5.1-2.3c1.5-1.7,2.6-3.8,2.9-6c0.2-1,0-1.7-1-2C268.7,288.1,265.3,287.6,261.9,287.4z"/>
	<path class="st3_team-brainstorming-5-28" d="M262.1,343.6c0,0-9.1-3.5-17.6,0c-6.9,2.8-10.6,7.3-8.6,11.3s16-1,20.5,0s5.6-0.5,5.6-0.5L262.1,343.6z"/>
	<path class="st1_team-brainstorming-5-28" d="M240.2,358.2c-2.8,0-4.9-0.6-5.9-2.5c-0.9-1.7-1-3.7-0.3-5.5c1.2-3.2,4.7-6.2,9.8-8.3c9-3.7,18.5-0.2,18.9,0&#10;&#9;&#9;c0.7,0.3,1.2,0.9,1.2,1.7v10.8c0,0.4-0.1,0.7-0.3,1c-0.4,0.6-2.1,2.5-7.5,1.3c-1.4-0.3-4.6,0.2-7.7,0.7&#10;&#9;&#9;C245.7,357.8,243,358.1,240.2,358.2z M252.8,343.9c-2.6,0-5.2,0.4-7.6,1.4c-4.1,1.7-7,4-7.8,6.2c-0.3,0.8-0.3,1.8,0.1,2.6&#10;&#9;&#9;c0.6,1.3,7.4,0.2,10.3-0.3c3.7-0.6,6.9-1.1,9.1-0.6c1.1,0.3,2.3,0.4,3.4,0.2v-8.4C257.8,344.2,255.3,343.9,252.8,343.9L252.8,343.9&#10;&#9;&#9;z"/>
	<path class="st3_team-brainstorming-5-28" d="M197.6,271.2c0,0,9.7-16.1,6.6-18.2s-9,6.3-9,6.3s-3.1-17.3-8.2-14.6s-8.4,6.2-9.9,11.6s2.7,17.9,2.7,17.9&#10;&#9;&#9;L197.6,271.2z"/>
	<path class="st1_team-brainstorming-5-28" d="M179.8,276.1c-0.8,0-1.5-0.5-1.7-1.2c-0.4-1.3-4.2-13.1-2.7-18.9s4.8-9.6,10.8-12.8c1.1-0.6,2.5-0.7,3.7-0.1&#10;&#9;&#9;c3.2,1.6,5.3,7.9,6.4,12.2c2.5-2.7,6.1-5.6,9-3.7s0.9,9-6.1,20.6c-0.3,0.5-0.7,0.8-1.2,0.9l-17.8,3.1&#10;&#9;&#9;C180,276.1,179.9,276.1,179.8,276.1z M188.1,246.2c-0.1,0-0.2,0-0.2,0.1c-5.1,2.7-7.8,5.8-9,10.5c-0.9,3.5,1,11.3,2.2,15.4&#10;&#9;&#9;l15.4-2.6c3.8-6.5,6.8-13.2,6.6-15.1l0,0c-0.9,0-3.8,2.4-6.3,5.9c-0.6,0.8-1.7,1-2.5,0.5c-0.4-0.3-0.7-0.7-0.8-1.2&#10;&#9;&#9;c-1-5.7-3.3-12.4-5.2-13.4C188.2,246.3,188.1,246.2,188.1,246.2L188.1,246.2z M197.6,271.2L197.6,271.2z"/>
	<path class="st3_team-brainstorming-5-28" d="M196.3,260.8c0,0-7.7-0.9-9,3.7"/>
	<path class="st1_team-brainstorming-5-28" d="M187.3,266.3c-0.2,0-0.3,0-0.5-0.1c-1-0.3-1.5-1.3-1.3-2.2c1.4-4.8,7.5-5.4,10.9-5c1,0.1,1.7,1,1.6,2&#10;&#9;&#9;c-0.1,1-1,1.7-2,1.6l0,0c-1.6-0.2-6.3-0.1-7,2.4C188.9,265.8,188.1,266.3,187.3,266.3z"/>
	<path class="st1_team-brainstorming-5-28" d="M262.1,345.4c-1,0-1.8-0.8-1.8-1.8s0.8-1.8,1.8-1.8l0,0l26.4-0.8l0.5-25c0.1-1,0.9-1.8,1.9-1.8&#10;&#9;&#9;c1,0,1.8,0.8,1.8,1.8c0,0,0,0,0,0l-0.5,26.7c0,1-0.8,1.8-1.8,1.8L262.1,345.4L262.1,345.4z"/>
</g>
<g id="speech-bubble-1_team-brainstorming-5-28">
	<path class="st5_team-brainstorming-5-28" d="M377.1,134h-36.8c-18.9,0-34.3,15.4-34.3,34.3v0l0,0c0,18.9,15.4,34.3,34.3,34.3h20.9l15,21.1l-1.4-21.1h2.3&#10;&#9;&#9;c18.9,0,34.3-15.4,34.3-34.3l0,0C411.5,149.4,396.1,134,377.1,134C377.1,134,377.1,134,377.1,134z"/>
	<path class="st6_team-brainstorming-5-28" d="M376.2,225.5c-0.6,0-1.1-0.3-1.5-0.8l-14.4-20.3h-20c-19.9,0.3-36.4-15.6-36.7-35.5&#10;&#9;&#9;c-0.3-19.9,15.6-36.4,35.5-36.7c0.4,0,0.8,0,1.2,0h36.8c19.9,0.3,35.8,16.8,35.5,36.7c-0.3,19.5-16,35.2-35.5,35.5h-0.4l1.3,19.2&#10;&#9;&#9;c0.1,0.8-0.4,1.6-1.2,1.8C376.6,225.5,376.4,225.5,376.2,225.5z M340.3,135.8c-17.9,0-32.5,14.6-32.5,32.5s14.6,32.5,32.5,32.5&#10;&#9;&#9;h20.9c0.6,0,1.1,0.3,1.5,0.8l11.2,15.8l-1-14.7c-0.1-1,0.7-1.9,1.7-1.9c0,0,0.1,0,0.1,0h2.3c17.9,0,32.5-14.6,32.5-32.5&#10;&#9;&#9;s-14.6-32.5-32.5-32.5l0,0H340.3z"/>
</g>
<g id="speech-bubble-2_team-brainstorming-5-28">
	<path class="st5_team-brainstorming-5-28" d="M188.8,134.9h-40.3c-16.4,0.1-29.6,13.5-29.5,29.9c0.1,14.5,10.7,26.8,25,29.1l-1.5,21.4l14.9-21.1h31.4&#10;&#9;&#9;c16.4-0.3,29.5-13.8,29.2-30.2C217.7,148,204.8,135.1,188.8,134.9L188.8,134.9z"/>
	<path class="st6_team-brainstorming-5-28" d="M142.5,217.2c-1,0-1.8-0.8-1.8-1.8c0-0.1,0-0.1,0-0.2l1.3-19.8c-17-3.5-28-20.2-24.4-37.3&#10;&#9;&#9;c3-14.6,15.9-25.1,30.8-25.1h40.3c17.4-0.6,32,13,32.6,30.4c0.6,17.4-13,32-30.4,32.6c-0.7,0-1.5,0-2.2,0h-30.4L144,216.4&#10;&#9;&#9;C143.7,216.9,143.1,217.2,142.5,217.2z M148.5,136.7c-15.4,0-27.9,12.5-27.8,27.9c0,13.7,10,25.4,23.6,27.5c0.9,0.1,1.6,1,1.5,1.9&#10;&#9;&#9;l-1,15l11.2-15.8c0.3-0.5,0.9-0.8,1.5-0.8h31.4c15.4,0,27.9-12.5,27.9-27.9s-12.5-27.9-27.9-27.9H148.5z"/>
</g>
<g id="speech-bubble-3_team-brainstorming-5-28">
	<path class="st5_team-brainstorming-5-28" d="M276.4,126.6c0-15.3-12.4-27.7-27.7-27.7c0,0,0,0,0,0h-29c-15.3,0-27.7,12.4-27.7,27.7s12.4,27.7,27.7,27.7&#10;&#9;&#9;h23.5c4,5.8,10.5,14.8,10.5,14.8l1.9-15.7C267.8,150.4,276.4,139.3,276.4,126.6z"/>
	<path class="st6_team-brainstorming-5-28" d="M253.6,171c-0.6,0-1.1-0.3-1.5-0.8c-0.1-0.1-6-8.3-10-14.1h-22.5c-16.3,0-29.6-13.2-29.6-29.6&#10;&#9;&#9;s13.2-29.5,29.6-29.5l0,0h29c16.3,0,29.5,13.2,29.6,29.5c0,13.1-8.6,24.6-21.1,28.3l-1.7,14.5c-0.1,0.7-0.6,1.4-1.3,1.5&#10;&#9;&#9;C254,171,253.8,171,253.6,171z M219.7,100.7c-14.3,0-25.9,11.6-25.9,25.9c0,14.3,11.6,25.9,25.9,25.9c0,0,0,0,0,0h23.5&#10;&#9;&#9;c0.6,0,1.2,0.3,1.5,0.8c2.3,3.4,5.5,7.9,7.7,11l1.3-11.1c0.1-0.7,0.6-1.4,1.4-1.5c13.9-3.5,22.2-17.6,18.7-31.5&#10;&#9;&#9;c-2.9-11.5-13.3-19.5-25.1-19.5L219.7,100.7z"/>
</g>
</svg>