<svg id="_0342_teacher" xmlns="http://www.w3.org/2000/svg" xmlns:xlink="http://www.w3.org/1999/xlink" viewBox="0 0 500 500" data-imageid="teacher-12" imageName="Teacher" class="illustrations_image" style="width: 144px;"><defs><style>.cls-1_teacher-12{fill:url(#linear-gradient);}.cls-1_teacher-12,.cls-2_teacher-12,.cls-3_teacher-12,.cls-4_teacher-12,.cls-5_teacher-12,.cls-6_teacher-12,.cls-7_teacher-12,.cls-8_teacher-12,.cls-9_teacher-12,.cls-10_teacher-12,.cls-11_teacher-12,.cls-12_teacher-12,.cls-13_teacher-12,.cls-14_teacher-12,.cls-15_teacher-12,.cls-16_teacher-12,.cls-17_teacher-12,.cls-18_teacher-12,.cls-19_teacher-12,.cls-20_teacher-12{stroke-width:0px;}.cls-2_teacher-12{opacity:.18;}.cls-2_teacher-12,.cls-8_teacher-12{isolation:isolate;}.cls-2_teacher-12,.cls-20_teacher-12{fill:#68e1fd;}.cls-3_teacher-12{fill:url(#linear-gradient-11-teacher-12);}.cls-4_teacher-12{fill:url(#linear-gradient-12-teacher-12);}.cls-5_teacher-12{fill:url(#linear-gradient-13-teacher-12);}.cls-6_teacher-12{fill:url(#linear-gradient-10-teacher-12);}.cls-7_teacher-12{fill:url(#linear-gradient-14-teacher-12);}.cls-8_teacher-12{opacity:.46;}.cls-8_teacher-12,.cls-19_teacher-12{fill:#fff;}.cls-9_teacher-12{fill:url(#linear-gradient-4-teacher-12);}.cls-10_teacher-12{fill:url(#linear-gradient-2-teacher-12);}.cls-11_teacher-12{fill:url(#linear-gradient-3-teacher-12);}.cls-12_teacher-12{fill:url(#linear-gradient-8-teacher-12);}.cls-13_teacher-12{fill:url(#linear-gradient-9-teacher-12);}.cls-14_teacher-12{fill:url(#linear-gradient-7-teacher-12);}.cls-15_teacher-12{fill:url(#linear-gradient-5-teacher-12);}.cls-16_teacher-12{fill:url(#linear-gradient-6-teacher-12);}.cls-17_teacher-12{fill:#231f20;}.cls-18_teacher-12{fill:#c14834;}</style><linearGradient id="linear-gradient-teacher-12" x1="-1120.74" y1="2432.97" x2="-1114.04" y2="2640.85" gradientTransform="translate(1289 3047.03) scale(1 -1)" gradientUnits="userSpaceOnUse"><stop offset="0" stop-color="#000"/><stop offset="1" stop-color="#000" stop-opacity="0"/></linearGradient><linearGradient id="linear-gradient-2-teacher-12" x1="-992.49" y1="2636.41" x2="-1004.22" y2="3236.58" gradientTransform="translate(1289 3047.03) scale(1 -1)" gradientUnits="userSpaceOnUse"><stop offset="0" stop-color="#231f20" stop-opacity="0"/><stop offset="1" stop-color="#231f20"/></linearGradient><linearGradient id="linear-gradient-3-teacher-12" x1="-968.95" y1="2859.54" x2="-1213.92" y2="2808.15" gradientTransform="translate(1269.29 3043.64) scale(1 -1)" xlink:href="#linear-gradient-teacher-12"/><linearGradient id="linear-gradient-4-teacher-12" x1="-1167.79" y1="2722.26" x2="-1120.06" y2="2719.65" gradientTransform="translate(1269.29 3043.64) scale(1 -1)" xlink:href="#linear-gradient-teacher-12"/><linearGradient id="linear-gradient-5-teacher-12" x1="-1112.34" y1="2766.44" x2="-1105.06" y2="2766.04" gradientTransform="translate(1269.29 3043.64) scale(1 -1)" xlink:href="#linear-gradient-teacher-12"/><linearGradient id="linear-gradient-6-teacher-12" x1="-1137.28" y1="2767.09" x2="-1115.2" y2="2765.88" gradientTransform="translate(1269.29 3043.64) scale(1 -1)" xlink:href="#linear-gradient-teacher-12"/><linearGradient id="linear-gradient-7-teacher-12" x1="-1110.91" y1="2800.85" x2="-1094.69" y2="2804.13" gradientTransform="translate(1269.29 3043.64) scale(1 -1)" xlink:href="#linear-gradient-teacher-12"/><linearGradient id="linear-gradient-8-teacher-12" x1="-1176.04" y1="2764.74" x2="-1122.85" y2="2803.6" gradientTransform="translate(1269.29 3043.64) scale(1 -1)" xlink:href="#linear-gradient-teacher-12"/><linearGradient id="linear-gradient-9-teacher-12" x1="-1161.36" y1="2886.16" x2="-1178.59" y2="2892.59" gradientTransform="translate(1269.29 3043.64) scale(1 -1)" xlink:href="#linear-gradient-teacher-12"/><linearGradient id="linear-gradient-10-teacher-12" x1="-1113.83" y1="2877.06" x2="-1136.18" y2="2906.95" gradientTransform="translate(1269.29 3043.64) scale(1 -1)" xlink:href="#linear-gradient-teacher-12"/><linearGradient id="linear-gradient-11-teacher-12" x1="-1141.59" y1="2869.76" x2="-1151.14" y2="2867.76" gradientTransform="translate(1269.29 3043.64) scale(1 -1)" xlink:href="#linear-gradient-teacher-12"/><linearGradient id="linear-gradient-12-teacher-12" x1="-1143.92" y1="2790.89" x2="-1160.59" y2="2798.77" gradientTransform="translate(1269.29 3043.64) scale(1 -1)" xlink:href="#linear-gradient-teacher-12"/><linearGradient id="linear-gradient-13-teacher-12" x1="-1063.71" y1="2871.32" x2="-1023.85" y2="2794.21" xlink:href="#linear-gradient-teacher-12"/><linearGradient id="linear-gradient-14-teacher-12" x1="-1069.51" y1="2804.21" x2="-1059.96" y2="2785.75" gradientTransform="translate(1269.29 3043.64) scale(1 -1)" xlink:href="#linear-gradient-teacher-12"/></defs><g id="background_teacher-12"><path class="cls-2_teacher-12 targetColor" d="M217.66,468.26c73.63-2.22,150.76-5.39,214.4-42.43,30.24-17.6,58.32-47.41,56.01-82.31-2.28-34.51-32.21-59.37-55.77-84.71-34.23-37.01-58.12-82.36-69.3-131.51-8.53-37.81-40.94-74.87-77.32-88.23-30.81-11.31-64.96-9.25-97.21-3.2-17.76,3.34-35.42,7.89-51.7,15.73-52.37,25.23-83.04,80.76-102.43,135.56-26.45,74.74-37.52,159.98-4.12,231.95,5.33,11.49,11.93,22.73,21.65,30.93,14.69,12.22,34.51,15.95,53.51,18.21,42.28,4.92,69.74,1.3,112.27.03Z" style="fill: rgb(104, 225, 253);"/><ellipse class="cls-1_teacher-12" cx="173.58" cy="449.04" rx="113.58" ry="21.79"/></g><g id="board_teacher-12"><rect class="cls-20_teacher-12 targetColor" x="92.75" y="52.04" width="397.76" height="233.5" style="fill: rgb(104, 225, 253);"/><rect class="cls-10_teacher-12" x="105.11" y="63.73" width="373.32" height="208.49"/><path class="cls-19_teacher-12" d="M221.94,142.54c0-.4-.06-.79-.21-1.16-.14-.37-.3-.72-.49-1.07-.06-.17-.09-.36-.09-.54,0-.23-.1-.34-.31-.31v.41c0,.19.04.37.13.54.08.18.18.35.28.52.12.17.22.34.32.52.09.18.14.38.14.58h-1.06l-.26-.3s0,.05,0,.08v.08c0,.09.03.17.09.23s.09.15.09.23c0,.1-.03.2-.08.28-.04.08-.13.13-.22.13h-.62c-.15,0-.3-.04-.44-.09h-.31l-.49-.09c-.16-.04-.32-.07-.49-.09h-.32c-.12-.03-.24-.06-.35-.12l-.34-.14-.12-.08s0-.04,0-.06v-2.13l.26.14c.04-.09.07-.18.09-.27.01-.09.01-.18,0-.27.08-.18.15-.27.24-.3h.44c.06,0,.09-.09.09-.24.02-.17-.1-.32-.26-.35l-.52-.09h0c.01-.19.07-.37.17-.53.12-.18.26-.35.43-.49.16-.14.35-.26.54-.36.17-.1.36-.15.55-.15h.22l.3.12h.22v.89c-.14,0-.27-.03-.39-.1-.11-.05-.23-.08-.35-.09h-.12s0,.08-.13.13c-.06.05-.11.1-.15.17v.14l.28-.14v.52l-.28-.15v.15c0,.24,0,.4.1.45.08.06.17.11.27.13l.34.08c.13.05.24.16.27.3v-1.03c.14-.07.23-.2.26-.35.03-.14.03-.29,0-.44,0-.15,0-.31-.1-.48-.04-.15-.04-.3,0-.45,0-.08.08-.09.18,0l.32.13.39.15c.1.05.2.08.31.09.04,0,.07.04.09.08,0,0,.08.08.1.08s0-.21,0-.17c.04.08.09.15.14.22l.27.36c.09.12.21.22.35.28l.68.09c.24.01.47.01.71,0h.1c.08.01.15-.02.21-.08.07-.03.16-.03.23,0h.09c.06.05.09.12.09.19-.02.07-.02.14,0,.21h.26c.12-.01.23-.01.35,0,.1.01.19.04.28.09.1.07.15.18.13.3h-1.11c-.08,0-.12.06-.12.18l.12.22v.44c0,.32.18.49.4.53.18.02.34.09.48.21.05.08.09.17.1.27.03.09.03.18,0,.27h.26v-.9l.34-.12v-.34s.04.01.06,0c.03,0,.05,0,.08,0l-.24.12h-.19l-.14-.13-.15-.13c.17-.11.33-.25.46-.4.17-.16.22-.41.13-.63.04.02.08.04.12.08,0,0,.1.08.13.08l-.28-.12c.11,0,.22-.06.26-.17.05-.11.17-.17.28-.15.17,0,.31.13.43.41.1.2.13.43.09.64.11-.17.26-.31.43-.43.16-.11.34-.17.53-.17v.81h.32c.17-.06.33-.16.44-.31.11-.16.3-.26.5-.24h.41c.11,0,.22.03.32.09,0,0,.08.09.09.22,0,.08.02.15.06.22h.08c.14,0,.27-.06.35-.18.09-.11.13-.26.13-.4.05.07.12.13.19.17.12,0,.17.1.17.13h.18l.19-.18c.02-.09.05-.18.1-.26l.15-.3c.15-.16.33-.29.53-.39l.57-.31.32-.13c.14-.04.27-.1.4-.15.1-.01.2-.04.3-.08.13-.04.24-.13.3-.26v-.26c0-.17,0-.3.08-.4v-.14l-.23-.08c-.07,0-.14-.04-.21-.08l-.18-.28s-.09-.17-.26-.35c-.1-.1-.19-.22-.26-.35-.03-.14-.03-.29,0-.44v-.44l-.27-.26c-.17-.15-.26-.24-.27-.3-.1-.11-.18-.22-.26-.35-.08-.11-.15-.23-.22-.35-.1-.12-.17-.17-.21-.14-.1.02-.21.02-.31,0v.54h-.08s-.04.01-.06,0l-.17-.09c-.07-.01-.14-.01-.21,0h-.1c-.1,0-.15,0-.15.14,0,.07,0,.15,0,.22,0,.08.04.16.09.22v.15l-.27.27-.28.27.15.3h-.34c-.08,0-.1,0-.1-.15-.02-.05-.02-.11,0-.17l.09-.13c-.11.04-.23.04-.34,0-.1-.03-.2-.08-.28-.15-.1-.06-.18-.14-.24-.23-.05-.07-.09-.13-.13-.21-.02.19-.14.36-.32.44-.17.1-.36.15-.55.15-.12,0-.18,0-.18-.12,0-.07-.03-.13-.08-.18l-.14-.08h-.14v-.12c0-.06,0-.12,0-.18v-.08s0-.06,0-.09c0-.08,0-.15,0-.23-.18-.01-.36-.01-.54,0-.2.04-.36.17-.44.36,0,.08-.03.16-.06.23v.21c-.18.15-.41.24-.64.24h-.71c-.17.01-.32-.07-.4-.22-.08-.15-.14-.32-.22-.52-.1.18-.22.34-.36.49-.16.08-.34.11-.52.09-.39-.01-.77-.1-1.12-.27-.36-.12-.59-.45-.59-.82v-.32l.14-.08h.18l.3-.06c.09-.02.18-.05.26-.09.04-.08.06-.17.06-.26,0-.11,0-.21,0-.32.02-.13.02-.27,0-.4.02-.14.02-.28,0-.41.25-.03.45-.23.48-.48.14.02.28.02.43,0,.12.02.25.02.37,0,.13,0,.23-.12.34-.28.07-.11.12-.24.14-.37l.26.26c.1-.01.17-.11.15-.2,0-.02-.01-.05-.02-.07-.06-.13,0-.23.17-.31,0,.07.04.13.11.14,0,0,.02,0,.03,0h.13c.06,0,.1-.08.13-.08h.12c.19-.01.37.09.46.26.08.16.24.26.41.26.14-.01.28-.04.41-.09.14-.03.27-.12.35-.24,0-.06,0-.12,0-.18l.08-.26h.28c0-.08.05-.15.13-.15,0,0,.02,0,.03,0v-.14c.15-.5.55-.88,1.06-1.01.5-.11,1.02-.17,1.53-.17h.55c-.12.1-.24.19-.37.27l-.36.28h-.14v-.22h-.48c-.02.07-.04.14-.06.21,0,.08,0,.15,0,.23l.17.17.13.13s.1.01.14,0l.15-.09c.14-.04.29-.07.44-.08.15-.01.29-.04.44-.08-.04-.13-.04-.27,0-.4.03-.09.09-.17.15-.23.05-.06.11-.11.18-.15.05-.02.09-.07.09-.13h0c-.03-.07-.06-.14-.1-.21-.05-.06-.09-.12-.12-.19,0-.04,0-.08,0-.12,0-.03,0-.07,0-.1,0,0,.06-.13.18-.22.13-.11.27-.21.41-.3l.41-.3c.1-.06.19-.15.24-.26l.09-.23c.03-.08.06-.17.09-.24.06-.02.1-.06.14-.1l.14-.14v-.08h-.34v-.45c.01-.16-.05-.32-.18-.43.01.02.01.05,0,.08v.06h-.12c-.19,0-.3-.08-.31-.26,0-.14-.08-.27-.21-.32h-.36c-.13-.03-.23-.14-.26-.27-.02-.14-.12-.26-.26-.31-.11,0-.23.03-.32.09-.1.06-.22.09-.34.09h-.14c-.09-.05-.19-.09-.3-.12-.1-.01-.2-.01-.3,0h-1.82l-.13.09s-.09.05-.13.09c-.57.12-1.03.19-1.4.23-.44.05-.87.16-1.29.31,0,0-.06,0-.12.08l-.06.08h-.12l-.18.08c-.06.04-.13.07-.21.08-.1,0-.15,0-.15.06-.17.08-.33.18-.48.3-.19.14-.3.24-.3.3v.14h.39c.15,0,.23,0,.23.22,0,.09-.05.17-.13.21-.09.07-.19.13-.28.18-.1.06-.2.11-.31.14-.1,0-.15.09-.15.13v.55c0,.14,0,.28,0,.41-.02.16-.05.31-.09.46l-.75.1c-.23.02-.46.02-.68,0-.29.01-.57-.05-.82-.18-.21-.12-.31-.39-.31-.8h0s.06,0,.12-.08l.14-.14c0-.13,0-.26,0-.39,0-.21.08-.34.09-.39l.15-.1v-.22c0-.14-.03-.27-.08-.4-.05-.15-.08-.31-.08-.48h0c.03-.11.06-.22.08-.34,0-.14,0-.23.08-.24h.22c.12,0,.18,0,.18-.08.07-.11.1-.23.09-.36,0-.13.02-.26.09-.37.1-.07.22-.11.34-.13.11-.03.22-.03.32,0,.09.02.17.09.18.18.03.1.05.2.06.3-.01.09-.01.18,0,.27,0,.09.13.13.28.13s.18-.08.18-.26v-.28c0-.12-.03-.24-.09-.35-.06-.08-.13-.15-.22-.21-.08-.04-.16-.1-.22-.17-.06-.06-.1-.15-.09-.23,0-.08,0-.17.22-.27.15-.12.32-.23.49-.32.18-.09.36-.17.54-.24.11-.05.23-.09.35-.12.12,0,.24.06.3.17.08.11.2.17.34.17h.1s.05,0,.08,0c.11-.06.21-.13.31-.21l.27-.19h.24c.07.05.14.11.19.18v-.44c.14.02.27-.04.35-.15.07-.12.12-.25.14-.39,0-.15.04-.27.12-.39.04-.11.15-.18.27-.17h.24c.08,0,.13,0,.13.13-.02.1-.06.21-.12.3l-.14.28v.08h0c.12,0,.23-.03.31-.12.05-.07.1-.15.14-.23,0-.09,0-.17.09-.24.02-.06.08-.1.14-.1h.26l.3.12c-.06.07-.1.15-.13.23,0,.08,0,.16,0,.24.01.15.06.29.15.41.08.14.22.23.39.24,0,0,.12-.12.28-.35.08-.15.19-.28.31-.39l-.44-.4.4-.22c.1-.05.21-.08.32-.08h.12v.08s.05,0,.08,0h.3c.14.07.26.18.35.31.1.12.13.28.09.43.27,0,.4-.19.4-.41,0-.21.05-.43.14-.62.12-.12.27-.21.43-.26.16-.07.32-.12.49-.14h.75c.25-.03.5.09.64.3,0,.04,0,.09,0,.13.04.05.07.1.09.15l.15.08h.1v.3c.04.08.12.15.21.18l.35.13.35.09h.23c.02.15.02.31,0,.46-.05.13-.08.27-.08.41,0,.19.12.3.36.3h.12l-.18-.26.36-.13c.13-.04.25-.1.36-.17v.15c0,.13-.04.25-.13.35-.08.08-.13.19-.13.31h.08c.06-.05.13-.1.21-.13.08-.04.14-.1.19-.17h.15c-.01.1-.01.21,0,.31.02.11.05.21.09.31.08.17.13.22.18.13s.13-.08.26,0,0,0,.13.15c.04.07.08.14.13.21.08.08.17.16.26.23.12.12.18.19.18.24l-.08.18-.08.22-.13.09c-.05.01-.1.01-.15,0-.08,0-.12.05-.12.15,0,.07,0,.15,0,.22v.24c-.01.2-.01.4,0,.59v.17h0c.01.07.01.14,0,.21h-.4c-.08-.02-.17-.02-.26,0-.1,0-.15.09-.17.3s0,.4,0,.63c-.02.22-.07.44-.15.64-.06.19-.24.31-.44.3-.14,0-.21-.06-.18-.17,0-.09,0-.18,0-.27h-.52v.58h.24c.13,0,.19,0,.19.14,0,.07,0,.14,0,.21,0,.08-.03.16-.06.23-.05.05-.09.1-.12.15l-.06.1c-.04.07-.07.14-.08.22,0,.08-.03.15-.08.22h-.22c-.08-.05-.17-.08-.26-.09v.95c.01.06.01.12,0,.18,0,.06-.06.1-.09.1-.13-.13-.22-.3-.26-.49-.05-.21-.08-.43-.08-.64v-1.13c0-.15,0-.1-.14-.1h-.41v.4c0,.14.03.27.08.4l.14.15v.28c-.06.06-.14.11-.22.13h-.18c.12.31.18.64.18.98h-.26v-.7l-.36.26v-.4c-.03-.14-.03-.29,0-.44.04-.12.07-.24.06-.36v-.15c-.01-.14-.04-.27-.08-.4-.01-.09-.01-.17,0-.26l-.08-.08h0s-.05,0-.08,0l-.08.08c-.07,0-.13.04-.14.11,0,0,0,.02,0,.03v3.03h.14c.07-.04.13-.08.19-.13,0,0,.1-.1.1-.13h.12l.49.08.61.08h.76c.15.07.31.12.48.17l.4.13c.15.11.3.22.44.35.15.12.3.25.44.39h.12l.14.08c.13.1.17.18.13.26-.03.14-.03.29,0,.44h.48l-.18-.12c.11.05.22.12.31.21.12.08.19.21.19.35h-.15c-.05-.02-.11-.02-.17,0-.13,0-.18.12-.18.27v.27h-.12l-.4-.84h-.12c-.14,0-.28.05-.37.15-.11.09-.19.2-.24.32.07-.02.15-.02.22,0,.07-.02.15-.02.22,0,0,0,.08,0,.17.17.1.12.19.25.27.39.1.14.19.28.27.41.06.07.1.16.13.24h0c-.06.05-.12.09-.19.13-.08.03-.15.09-.21.15v.15c.07.07.14.15.21.23.05.08.12.15.19.21.09-.07.15-.17.15-.28,0-.13.08-.19.18-.19h0s.08.03.12.06c0,.03,0,.05,0,.08,0,.09-.03.19-.09.26l-.21.13c-.07.03-.14.08-.19.14-.07.06-.1.15-.1.24v.37l.08.22.08.22s-.08.13-.22.18l-.22.08-.26,1.71c0,.09-.09.17-.26.22-.17.05-.29.19-.32.36-.07.13-.1.28-.1.43,0,.21-.1.3-.31.27v-.26c-.13.07-.25.16-.35.27-.06.09-.1.18-.13.28-.02.1-.04.19-.06.28-.03.11-.09.22-.18.3-.05.04-.1.06-.15.08h-.14c-.22.13-.36.36-.35.62.02.24-.06.47-.21.66-.08-.06-.15-.13-.22-.21-.07-.07-.1-.17-.1-.27v-.08h.09c.05-.01.09-.06.09-.12h-.44l-.4.88c0-.12,0-.27-.09-.45-.03-.17-.18-.29-.35-.27-.18,0-.27,0-.28.22-.02.15-.02.3,0,.45.02.15.02.3,0,.45,0,.15-.1.22-.27.22s0-.17,0-.37c0-.13-.02-.26-.06-.39,0-.19-.1-.3-.24-.3-.13-.02-.25.06-.28.18-.04.14-.07.27-.09.41-.03.14-.06.27-.1.4-.06.12-.2.2-.34.18-.26,0-.51-.11-.67-.31-.19-.21-.34-.31-.46-.31-.03,0-.05,0-.08,0,0,.08,0,.15,0,.23,0,.13,0,.22-.09.23s-.09,0-.14,0h-.15s-.09.03-.1.08c-.02.11-.02.22,0,.34-.21-.02-.41-.07-.61-.13-.27-.09-.44-.18-.49-.28l-.55.22.15.15h-.34c-.22,0-.35,0-.4-.12-.06-.08-.09-.16-.1-.26l-.08-.26s-.13-.1-.3-.1c.02.12.05.23.08.35,0,.21,0,.32-.18.35-.06-.01-.11-.01-.17,0-.05.04-.1.07-.17.08-.35,0-.71-.03-1.06-.09l-1.1-.21h-.13s-.09,0-.13,0c-.17-.03-.34-.03-.52,0h-.5l-.21-.12c-.09-.05-.14-.14-.13-.24h.82ZM217.74,139.62h0v.09s.14-.13,0-.13v.04ZM218.32,139.44c-.08,0-.1,0-.1.15s0,.17.1.17.08,0,.08-.17-.03-.19-.08-.19v.04ZM219.61,141.29v-.14c.02-.05.02-.11,0-.17l-.13-.13.13.44ZM219.75,142.43h.4v-.14h-.4v.14ZM220.15,139.85v-.15h-.14l.14.15ZM220.15,140.43c-.08,0-.1,0-.1.14s0,.15.1.15.12,0,.12-.15-.08-.15-.15-.15h.04ZM220.15,139.44h.14l.21-.09.21-.09s-.08,0-.13-.17c-.05-.08-.09-.15-.13-.23l-.08-.14-.08-.15h-.14v.88ZM220.29,140.83c-.06,0-.1,0-.1.14s0,.15.1.15.12,0,.12-.15-.08-.15-.15-.15h.04ZM220.29,126.1h.18c0-.12-.07-.24-.18-.3v.3ZM220.67,140.97c.04.08.09.15.14.22l.14.19.24-.13c-.04-.07-.09-.13-.15-.18-.06-.08-.12-.12-.14-.12h-.23ZM220.67,124.22c0,.09,0,.17,0,.26,0,.09.05.17.13.22.09,0,.14-.09.14-.14h0s0-.12-.13-.15c-.02-.06-.04-.12-.08-.18h-.06ZM220.67,125.43s0,.08,0,.12l.08.14h.14l-.14-.58c-.06.04-.1.11-.12.18v.14h.04ZM221.2,123.86c0,.12.05.24.14.31.09.08.2.13.32.13v-.08h0c-.02-.1-.06-.21-.12-.3-.08-.14-.12-.24-.14-.28s-.21.03-.21.22ZM221.2,142.54c.08,0,.12,0,.12.18s0,.18-.12.18-.08,0-.08-.18.08-.18.08-.18ZM221.34,139.54c0,.13.04.25.12.35l.23.31c.08.09.15.19.21.3.05.11.05.25,0,.36.18-.02.33-.12.44-.26,0-.09,0-.27-.13-.53-.03-.15-.08-.3-.13-.45-.08-.14-.23-.23-.39-.24l-.35-.09v.26ZM221.63,138.25c-.02.08-.02.16,0,.23.03.04.08.07.13.09l.19.08c.09.03.17.1.22.18.11.15.17.34.17.53,0,.18.13.34.32.35.02,0,.05,0,.07,0h.08c.08-.12.12-.26.12-.4v-.44c0-.08-.18-.4-.53-.48-.23-.06-.47-.11-.71-.13h-.05ZM221.71,121.43l.26.1-.12.15c-.09,0-.14,0-.14-.15h0v-.1ZM221.71,126.07l.54-.14c-.02-.07-.07-.12-.14-.13h-.4v.27ZM222.11,121.98c-.08,0-.12,0-.12.13s0,.13.12.13.1,0,.1-.13.03-.12-.05-.12h-.05ZM222.21,141.54c.05.1.15.17.26.18v-.18h-.26ZM222.65,123.96s-.1,0-.1.14,0,.14.1.14.12,0,.12-.14.01-.13-.06-.13h-.05ZM223.13,140.18c0,.21.05.42.15.61.09.18.17.37.22.57h0l.08-.08c-.02-.09-.04-.17-.08-.26,0-.09,0-.19,0-.28,0-.1-.06-.21-.09-.34-.02-.11-.12-.2-.23-.21h-.05ZM223.5,139.67s-.06-.08-.18-.08-.18,0-.15.08c.05.05.11.08.18.08.07.04.17,0,.21-.06h-.05ZM223.39,133.32h.73v-.18c-.15,0-.3-.03-.44-.08-.14-.04-.25-.15-.3-.3v.55ZM223.64,141.36c-.08,0-.1,0-.1.15s0,.17.1.17.08,0,.08-.17.05-.14-.03-.14h-.05ZM223.76,140.07s-.08,0-.08.17,0,.17.08.17.1,0,.1-.17.01-.15-.09-.15h-.01ZM223.86,140.88h0c.03.11.06.22.08.34v.26c.05.04.11.06.17.08h.13s.21.21.17.26,0,.08.23.08c.01-.1.01-.21,0-.31-.05-.15-.12-.29-.21-.43-.08-.13-.17-.25-.27-.36-.07-.09-.18-.15-.3-.15v.24ZM224,131.86c0,.17.06.33.15.46.08.15.23.24.4.23,0-.17-.04-.33-.13-.48-.08-.13-.22-.21-.37-.22h-.05ZM224.26,122.1s-.1,0-.1.09,0,.08.1,0,.15-.04.05-.09h-.05ZM224.26,138.15h-.14v-.14l.14.14ZM224.78,120.87h-.3l.14-.15.15.15ZM224.6,139.24v.34s-.12,0-.12-.17.13-.17.21-.17h-.09ZM224.6,130.62v.17c0,.17,0,.14,0,.12.05-.02.08-.06.08-.12.03-.05.05-.11.04-.17h-.12ZM224.75,131.6c0,.13,0,.19.14.19h.15c.05-.19.11-.37.19-.54.08-.16.15-.32.21-.49l.14-.13.18-.13h-.14c-.19-.01-.38.09-.48.26-.08.14-.15.29-.22.44.01.22-.04.36-.06.4h-.12ZM225.27,141.15h0s0,.09,0,0,.14,0,.14-.08.06.08-.03.08h-.12ZM225.59,141.55c0,.17.06.33.18.44l.26-.26c-.04-.09-.12-.16-.22-.17h-.22ZM226.88,133.61c.08.05.08.12,0,.19-.12.12-.06,0-.06-.12s.15-.09.21-.08h-.14ZM226.99,129.09s.1,0,.1.14,0,.14-.1.14-.08,0-.08-.14.17-.14.22-.14h-.14ZM226.99,132.08s-.08,0-.08.18,0,.23.08.19,0-.09,0-.19c.08-.03.13-.1.14-.18h-.14ZM226.99,140.6s-.08,0-.08.13,0,.13.08.13.1,0,.1-.13.1-.13.04-.13h-.14ZM227.14,128.83c.08,0,.12,0,.12.13s0,.13-.12.13-.12,0-.12-.13.18-.13.26-.13h-.14ZM227.53,140.3s-.06,0-.06.15,0,.14.06.14.12,0,.12-.14.1-.15-.01-.15h-.1ZM228.01,129.53h.4v-.15h-.4v.15ZM228.41,120.97c.03.07.08.13.13.18l.13.15v-.81c-.09,0-.17.06-.19.14-.02.1-.02.2,0,.3l-.06.04ZM228.67,119.44l.3.3h-.04c-.12.01-.23-.05-.28-.15l.03-.14ZM229.11,129.63h0c0-.1,0-.15-.14-.15l-.15.15h.3ZM228.97,133.07v-.3l-.15.15.15.14ZM229.11,121.99c.07-.06.13-.14.18-.22.06-.06.1-.14.12-.22,0,0,0-.1-.14-.1h-.15v.54ZM229.4,132.3h0s0,.09,0,0,.08,0,.08,0c0,0,.12.04.06.04l-.14-.04ZM229.55,129.19c-.06,0-.1,0-.1.14s0,.15.1.15.12,0,.12-.15.1-.1.03-.1l-.14-.04ZM229.7,132.89c-.08,0-.12,0-.12.14s0,.14.12.14.1,0,.1-.14.1-.1.04-.1l-.14-.04ZM229.94,129.33c-.22,0-.32.13-.32.37v.54c.17,0,.26,0,.26-.15,0-.12.02-.24.06-.35h.15s0,.04,0,.06v.08h.3c.24-.32.06-.52-.31-.52l-.14-.04ZM229.84,131.91c-.08,0-.12,0-.12.13s0,.13.12.13.08,0,.08-.13.12-.1.06-.1l-.14-.03ZM229.92,132.31c0,.19.09.36.24.46.17.1.36.15.55.15,0-.27-.08-.44-.22-.5-.14-.06-.29-.09-.44-.09l-.14-.03ZM230.34,120.64c0,.23.09.34.26.34h.12c-.03-.08-.07-.15-.12-.22-.06-.08-.16-.13-.26-.12ZM230.72,121.41c-.24,0-.37.1-.37.3h.37v-.3ZM230.72,131.5h.14c.01-.1.01-.21,0-.31-.02-.1-.06-.19-.1-.28l-.04.59ZM230.72,134.42c0-.17.06-.26.22-.26,0,.13.02.25.09.36.05.1.17.13.35.08,0,.11-.03.21-.06.31-.03.13-.11.25-.23.31-.12-.1-.21-.24-.26-.4-.05-.11-.09-.24-.1-.36v-.04ZM230.98,133.61v.15c0,.15,0,.14,0,.14,0,0-.08,0-.08-.14s.03-.15.08-.15ZM231.08,128.65v-.08.08c0,.08,0,0,0,0,0,0,0,.04,0,0ZM231.08,123.34c-.01.08-.01.16,0,.24,0,.08.09.13.22.13h0l.09-.09s0-.06,0-.09c-.04-.09-.12-.16-.22-.17l-.09-.03ZM231.37,134.05s.1,0,.1.15,0,.14-.1.14-.12,0-.12-.14.04-.15.12-.15ZM231.52,121.99s-.08,0-.08.15,0,.15.08.1c.05-.03.08-.08.08-.14,0-.08-.03-.12-.09-.12h.01ZM231.85,134.46v.28s-.15,0-.15-.14.05-.14.15-.14h0ZM231.85,132.08s-.08,0-.08.06,0,.08.08,0,0,0,0-.08.04.01,0,.01h0ZM231.85,123.9c-.02.13.08.24.2.26.02,0,.04,0,.05,0v-.52c-.12-.04-.25.03-.29.15-.01.03-.01.07,0,.1h.04ZM231.85,120.43l.1-.12h-.1v.12ZM231.95,140.6h-.08s0,.1.08.08.08,0,.08-.08-.03,0-.08,0h0ZM232.07,130.29c0,.08-.04.08-.12,0-.12-.12,0,0,.09,0s.06-.08.03-.04v.04ZM232.07,129.13s-.08,0-.08.14,0,.14.08.14.14-.06.14-.14-.06-.14-.14-.14ZM232.39,122.4c-.14,0-.26.09-.32.22h.32v-.22ZM232.07,127c0,.19.08.3.24.3s.1-.09.22-.27c.07-.12.16-.23.26-.32l-.14-.06h-.22c-.1,0-.2.06-.26.14-.05.05-.08.11-.1.18v.04ZM232.65,123.28s-.08,0-.08.08,0,.09.08,0,.08,0,.08,0c0,0-.03-.14-.08-.14v.06ZM232.65,131.83s-.08,0-.08.14,0,.14.08.14.1,0,.1-.14.04-.18-.1-.18v.04ZM232.65,126.31l.14.15h.08c.12,0,.21-.09.22-.21,0-.09,0-.18,0-.27h-.3c-.12,0-.17.08-.17.21l.03.12ZM232.65,133.37c0,.06,0,.13,0,.19.02.1.06.19.1.28l.12.1c.06.09.09.2.09.31,0,.09.08.13.27.13,0-.21-.04-.42-.1-.62-.06-.18-.15-.36-.26-.52h0s-.05,0-.08,0l-.1.08-.04.04ZM232.79,134.94v-.13s-.07.01-.08.05c0,0,0,.02,0,.03,0,0,0,.06.09.06s-.01-.01-.01-.05v.04ZM232.91,125.61h.27c.09,0,.16-.06.21-.13-.08-.08-.18-.13-.3-.14h-.18v.27ZM233.35,124.85c-.01.06-.01.12,0,.18,0,.08.08.12.13.12v-.3h-.13ZM233.67,121.34c0-.08,0-.12-.18-.12s-.15,0-.1.12c.04.02.09.02.13,0,.05,0,.11,0,.15-.04v.04ZM233.39,124.3h.32c0-.09-.05-.16-.13-.19l-.19-.09v.28ZM233.39,126.46h.14v-.15l-.14.15ZM233.53,128.14h-.08s0,.09.08.09.1-.13,0-.13v.04ZM233.53,132.49s-.08,0-.08.09,0,.09.08.09c.03,0,.07-.01.08-.05,0,0,0-.02,0-.03,0,0-.03-.12-.08-.14v.04ZM233.78,134.64c0,.15.03.3.1.44.07.14.07.3,0,.44.1-.08.18-.2.22-.32.05-.11.09-.22.12-.34,0-.14-.04-.27-.12-.39-.07-.12-.09-.25-.06-.39-.17.12-.26.31-.26.52v.04ZM234.08,123.57c-.08,0-.12.05-.12.15,0,.12,0,.17.12.17s.14,0,.14-.17-.05-.19-.14-.19v.04ZM234.26,141.19q.06,0,0,.1c-.06.1-.12,0-.12,0,0,0,.04-.17.12-.14v.04ZM234.33,123.15c-.01.15.06.28.19.35.13.06.26.1.4.13v-.08h0s-.08-.27-.21-.28c-.12-.08-.25-.15-.39-.21v.09ZM234.52,140.25s.1,0,.1.14,0,.15-.1.15-.12,0-.12-.15.04-.23.12-.23v.09ZM234.52,128.92c0-.27.13-.5.19-.71s.26-.32.61-.32c-.02.51-.26.98-.66,1.29l-.14-.15v-.1ZM234.62,133.66v.77c.02.25.11.49.26.7h0s.05,0,.08,0c0,0,.08,0,.15-.14s.26-.18.26-.18c.08-.02.16-.02.23,0,.14,0,.21,0,.21-.09v-.08h0c.03-.29-.13-.57-.4-.68-.23-.2-.5-.35-.79-.44v.14ZM234.62,125.93c.1,0,.19-.07.22-.17.05-.08.07-.18.08-.27h-.3v.44ZM234.76,138.99s-.1.03-.1.08c0,0,0,.02,0,.03,0,.08,0,.12.1.12s.08,0,.08-.12.01-.17-.04-.17l-.04.06ZM234.76,124.48c0,.13.08.24.21.26h.39v-.28h-.14c-.08,0-.16-.03-.23-.06-.07-.02-.13-.05-.18-.09,0,.03,0,.05,0,.08l-.04.1ZM235.06,135.54h-.08s0,.08.08,0,.08,0,.08-.08-.03.01-.08.01v.06ZM235.21,134.53v.14l-.15-.14h.15ZM235.36,124.88c-.08,0-.12,0-.12.14s0,.15.12.15.1,0,.1-.15-.03-.21-.09-.21v.06ZM235.79,135.29s-.08,0-.08.13,0,.13.08.13.1,0,.1-.13-.03-.19-.1-.19v.06ZM236.05,122.65c.06,0,.1,0,.1.14s0,.15-.1.15-.08,0-.08-.15.03-.21.08-.21v.06ZM236.34,124.48h-.09s0-.08.09-.08.03-.04,0,.01v.06Z"/><path class="cls-19_teacher-12" d="M262.03,138.8c-.01-.13.03-.26.12-.36.07-.08.11-.19.1-.3,0-.14-.02-.29-.06-.43-.05-.12-.08-.25-.08-.37v-.3c.02-.06.04-.12.08-.17.03-.05.05-.1.06-.15-.04-.07-.09-.14-.14-.21-.08-.09-.13-.13-.18-.13s0-.27,0-.52v-1.31c0-.29.05-.57.14-.84.05-.16.12-.31.22-.44.11-.14.16-.3.15-.48,0-.14-.1-.22-.3-.22l-.14.08h-.19c-.19.01-.37.08-.53.19-.04.07-.04.15,0,.22,0,.06,0,.13,0,.19,0,0,0,.09-.19.09s-.09-.06-.18-.22-.18-.23-.23-.24h-.1c0,.12,0,.23-.09.36-.03.11-.08.22-.13.32h-.09c-.05-.03-.11-.03-.17,0,0,0-.08,0-.17.14s-.14.14-.15.14h-.15c-.12-.04-.23-.11-.32-.19-.15-.14-.23-.22-.23-.24h-.08c-.12,0-.18.08-.19.24,0,.13-.1.25-.23.26-.01,0-.03,0-.04,0h-.12s-.06,0-.13-.1-.1-.12-.13-.12c-.07.02-.13.06-.18.12-.08.08-.13.1-.18.1h0c-.15-.04-.3-.11-.44-.19l-.52-.28-.14-.14c.1,0,.14-.08.14-.22s-.12-.27-.36-.44h0c-.09,0-.17,0-.22.21-.04.09-.07.18-.08.27l.06.08c.06.08,0,0,0,0v.08s.01.05,0,.08c0,0-.06,0-.06.06h0c-.11,0-.21-.02-.31-.06l-.31-.15c0-.12.1-.17.31-.15.15,0,.23-.08.23-.24.01-.22-.05-.44-.18-.62-.12-.14-.19-.33-.18-.52,0-.09,0-.18,0-.27,0-.13.08-.19.21-.17v.48l.09-.1s.01-.08,0-.12v-.1c0-.08,0-.16,0-.24,0-.08-.03-.16-.06-.23-.15.04-.29.12-.41.22-.13.08-.23.21-.27.36-.11-.13-.18-.28-.21-.45-.04-.15-.04-.31,0-.46,0,0,0-.09.09-.14.05-.04.1-.07.17-.08l.22.22c.06-.02.1-.07.1-.13v-.19c-.01-.06-.01-.13,0-.19,0,0,.1-.06.26-.06h.06l.08.1s.09.07.14.08c.04.02.08.02.12,0,.09,0,.17-.05.22-.12h.08c.14.02.28.07.4.15l.44.22c.15.02.3.06.44.12,0,0,.06.08,0,.12,0,.04,0,.08,0,.12,0,0,0,.06.14.09,0-.3.17-.44.48-.44.08-.02.17-.02.26,0,.07.02.15.02.22,0h.22v-.12c-.04-.08-.06-.17-.08-.26,0-.08-.03-.15-.06-.22v-.1h.14c.06.1.09.22.09.34,0,.14.08.22.21.22.14,0,.27-.06.35-.17.1-.12.26-.18.41-.17.11-.02.22.03.3.12.06.07.16.11.26.1.01-.07.01-.15,0-.22,0-.06,0-.1.14-.1h.08l.13.13s.1.09.13.09h-.15c.09-.09.17-.19.22-.31,0-.1,0-.21,0-.31,0-.08,0-.16,0-.24,0,0-.1-.12-.22-.17,0-.06.06-.1.12-.1h.41c.06-.01.1-.07.09-.13-.01-.09-.04-.17-.08-.24,0-.13-.1-.26-.17-.39-.05-.12-.11-.24-.19-.35-.08-.1-.14-.14-.18-.14v-1.13c.14.04.22.18.18.32,0,0,0,0,0,0-.04.13.02.27.14.34.17,0,.26,0,.26-.19.03-.12.03-.25,0-.37-.04-.16-.11-.3-.22-.43h.14c.09-.01.19-.01.28,0,.08.02.16.02.23,0,.19,0,.34-.15.4-.44.04-.23.16-.44.34-.59v-.82c.07.07.16.1.26.1h.1c.1,0,.09-.06.12,0,.1.05.19.11.27.19.1.09.16.22.17.35-.13-.01-.26.01-.37.06,0,0-.06.13-.06.31v.22l.32-.22h.08s0,.06,0,.09v.18c0,.07,0,.15,0,.22h.36c.19,0,.32.27.39.67.06.43.11.86.13,1.29.02.43.06.86.13,1.29,0,.37.18.57.39.57s.19,0,.22-.12h.8l.12-.08h.14l.24.23c.07.07.14.16.19.24-.12-.16-.08-.39.08-.5.01,0,.02-.02.04-.02.15-.12.34-.2.54-.21h.26s.09,0,.12.15c0,.08,0,.16,0,.24.14,0,.22-.09.23-.18,0-.1.07-.19.17-.22.11.2.32.32.54.32.2,0,.4-.06.57-.18.16-.12.36-.18.57-.18h.3l.08.18h.14s.05,0,.08,0v-.4c.07.08.18.11.28.1.19.02.38.02.57,0,.19.02.38.02.57,0-.03.03-.05.07-.06.12-.02.04-.05.07-.08.1v.08c.11,0,.21-.06.23-.17,0-.1.12-.15.35-.15.03.08.03.17,0,.24-.03.08-.03.17,0,.26.11-.01.22-.01.32,0,.11.04.22.06.34.06.12,0,.19,0,.22-.08s.08-.08.18-.08c.03,0,.05,0,.08,0v.12h0l.15.12s.1.08.1.1l-.1.22-.08.18-.08.19h.62c0,.09-.02.18-.06.26-.05.07-.08.16-.08.24h0c.08.05.17.08.26.09.09,0,.17.06.22.13h-.13l-.13.1v.45c0,.18.08.3.09.35v.21s-.08.08-.24.1h-1.79c-.07-.03-.13-.08-.18-.14-.05-.06-.12-.1-.19-.1h-.14c-.06.01-.12.01-.18,0l-.13.09s-.09,0-.13,0h.09c-.21.01-.42-.04-.61-.14-.14-.09-.29-.13-.45-.14v.14c-.25-.04-.48.13-.52.38,0,.05,0,.09,0,.14h0l-.17-.15c-.09,0-.14-.1-.17-.1s-.09,0-.13.1c-.02.06-.05.11-.09.15-.13.03-.27-.02-.35-.13-.06-.11-.11-.24-.14-.36-.03-.13-.08-.26-.13-.39-.03-.11-.14-.19-.26-.18h-.09c0,.06,0,.12,0,.18,0,.1.06.15.09.15h-.14c-.08-.01-.15-.04-.22-.09-.06-.05-.14-.09-.22-.1l-.22.55c0-.12-.1-.19-.17-.22-.08-.01-.16-.01-.23,0-.19,0-.38.05-.54.14-.15.1-.24.27-.23.45l-.08-.08v-.08c0-.23.12-.44.31-.57.19-.14.35-.32.46-.53,0,0,0-.08-.12-.14h-.1c-.04.07-.1.14-.17.19l-.17.17h-.32c-.08.04-.14.13-.14.22,0,.1,0,.21,0,.31.02.1.02.2,0,.3,0,.09-.12.13-.26.13s-.14,0-.14-.15,0-.14-.15-.14c-.15,0-.27.1-.31.24-.06.19-.11.37-.14.57,0,.21-.06.43-.09.63,0,.15-.06.3-.15.43-.03.01-.07.01-.1,0-.03,0-.05,0-.08,0v-.54h-.28c-.24,0-.4.13-.44.26-.06.15-.08.31-.08.48h.35c.1,0,.13.12,0,.31.11-.04.22-.1.31-.17.09,0,.18-.13.27-.19.18.31.28.65.3,1.01,0,.37,0,.73,0,1.08v.58c-.11.14-.2.29-.26.45-.07.18-.13.37-.18.55l-.14.48c-.05.13-.09.19-.12.19h-.7c-.12,0-.19.13-.22.31,0,.15-.07.29-.18.39l-.44-.41c-.11-.13-.27-.22-.44-.24v.55c0,.1-.14.17-.45.22-.05-.16-.07-.33-.08-.5l.08-.05ZM256.3,130.44v-.08s-.09,0-.09.08c.03.01.06.01.09,0ZM256.15,131.36h.14v-.23h-.14v.23ZM256.66,132.26c.15,0,.22-.12.22-.36h-.22v.36ZM258.16,130.76l.1.12h.08l-.08-.22-.1.1ZM259.66,133.17c-.12.09-.19.23-.18.37h0c.09-.1.14-.23.14-.36h.04ZM262.11,127.74c0,.12,0,.18.13.18h.45c.08,0,.12-.06.12-.18-.01-.09-.06-.16-.14-.21-.07-.05-.15-.08-.23-.09h0l-.26.26-.06.04ZM262.25,137.41c.02.13.08.25.15.35.08.12.22.18.36.17v-.58c0-.22-.11-.43-.28-.55-.02.1-.02.21,0,.31-.05.17-.13.28-.23.28v.03ZM262.37,136.12h.06v-.03l-.06.03ZM262.8,125.71v.1c0,.1,0,.14,0,.12.03,0,.07-.01.08-.05,0,0,0-.02,0-.03-.02-.03-.05-.05-.08-.06v-.08ZM263.13,124.68h.08-.08ZM263.5,127.07h.1v-.08h-.1v.08ZM263.72,126.19c0,.12,0,.19.1.22l.26-.22h-.36ZM264.2,126.87h-.08s.01.07.05.08c0,0,.02,0,.03,0h0v-.08ZM264.3,133.38c.07-.03.12-.1.13-.18,0-.06,0-.12,0-.18h-.14v.36ZM264.52,129.26s-.08,0-.08.1,0,.12.08.12.08,0,.08-.12-.03-.09-.08-.09h0ZM264.99,136.78h0v.08s.01-.01.01-.06h-.01ZM268,131.19h-.08s0,.1.08.1c.01-.03.01-.06,0-.09h0ZM268.76,130.17v.26s.08,0,.08-.13.04-.12-.08-.12h0ZM269.35,132.22s-.08,0-.08.13,0,.12.08.12,0,0,0-.12.04-.12,0-.12h0ZM269.57,129.77v.22c0,.13,0,.18.13.18.15,0,.28-.09.35-.22.08-.12.12-.26.13-.4,0-.13-.09-.19-.26-.19h-.17c-.06.02-.11.05-.15.09l-.03.32ZM270.86,131.89s-.08,0-.08.13,0,.13.08.13.12,0,.12-.13-.09-.12-.17-.12h.05ZM273.05,130.87l.12-.12h-.12v.12Z"/><path class="cls-19_teacher-12" d="M303.33,143.92c.03-.1.03-.21,0-.31,0-.12-.05-.23-.14-.31l-.34-.09h-.44c-.06-.03-.11-.07-.14-.13-.12-.06-.23-.13-.34-.22l-.32-.24h-.24l-.41-.1-.4-.12c-.08,0-.16-.04-.22-.09-.31-.09-.59-.26-.82-.48-.23-.21-.48-.41-.75-.58h-.08c-.12,0-.21.09-.26.27l-.1.35c-.22-.05-.35-.14-.39-.27-.05-.14-.14-.27-.27-.35l-.08.08h-.08c-.04.11-.04.23,0,.34v.32c-.06.01-.13.01-.19,0-.07-.02-.13-.07-.17-.13-.05-.11-.05-.25,0-.36,0-.13,0-.21-.15-.26h-.06s-.07.01-.1,0v.98c-.18.05-.33.16-.45.3-.11.14-.26.23-.44.26h-.9c0,.06-.03.12-.06.17-.02.05-.05.09-.09.12h-.82c-.16-.01-.33-.05-.48-.12-.05-.07-.1-.14-.13-.22-.04-.09-.1-.18-.17-.26-.22-.36-.34-.78-.35-1.2v-1.29c0-.35.03-.7.09-1.04.06-.43.15-.86.26-1.29.12-.43.23-.84.36-1.29.11-.35.26-.68.43-1.01.12-.22.32-.39.55-.48.23-.09.42-.26.54-.48,0,0,.12-.15.21-.37.05-.14.1-.27.17-.4l.14-.18h.14c.07-.04.13-.1.18-.17.05-.04.09-.1.12-.15.03-.05.03-.11,0-.15-.01-.05-.01-.1,0-.14l.13-.13c.04-.05.1-.09.15-.13l.06.21h.19c.12,0,.15,0,.24-.18.09-.13.17-.27.23-.41.07-.13.13-.27.18-.41.04-.09.06-.18.08-.27h.39c.15-.01.3-.04.45-.08.14-.02.28-.09.39-.18.12-.08.19-.21.21-.35h.76c.01-.05.04-.1.06-.14.03-.07.07-.13.12-.18h.32c.1.02.21.02.31,0l.8-.62.55-.43c.09-.08.18-.15.28-.21,0-.06,0-.13,0-.19v-.17s.06-.08.18-.14l.26-.15s.06-.09.08-.14.04-.1.08-.14c.04-.07.09-.14.15-.19l.17-.14c0-.09.13-.27.24-.52l.19-.44v-.22c0-.13,0-.27,0-.4.01-.14.04-.28.06-.41v-.24c.01-.05.04-.1.08-.14.04-.05.06-.1.08-.15.06-.09.11-.18.14-.28.03-.07.06-.14.08-.22-.03,0-.05,0-.08,0-.03-.05-.09-.07-.14-.08-.2-.08-.41-.15-.62-.19l-.63-.17v-.4h-.31c-.1.04-.2.06-.31.08-.09-.09-.16-.19-.23-.3l-.21-.26-.67-.23-.64-.21h-.44c-.58,0-1.15.09-1.7.26-.56.15-1.05.5-1.37.99v.18c-.02.17.03.34.14.48l.66.32c.34.2.66.44.95.72.28.27.55.57.8.85,0,.04,0,.09,0,.13v.13c-.03.17-.1.33-.18.48-.13.24-.21.36-.26.36s-.21-.08-.26-.23c-.05-.14-.08-.28-.1-.43-.28.16-.6.23-.91.22,0-.17,0-.24.22-.24.11.02.2-.06.22-.16,0-.02,0-.04,0-.06v-.19c-.19.11-.39.2-.61.26-.21.06-.43.08-.64.08h-.36c0-.22-.08-.34-.22-.35-.15-.01-.29-.07-.4-.17-.25-.15-.44-.39-.53-.67-.08-.27-.23-.52-.43-.72-.11-.07-.22-.12-.35-.15l-.54-.17-.5-.14c-.14,0-.22-.1-.22-.15v-2.81c-.08-.03-.14-.1-.17-.18,0-.07,0-.15,0-.22.23.02.46-.08.61-.27l.39-.57h.82l.49-.08h.34l.19-.13c.06-.06.14-.11.23-.13.17-.1.36-.16.55-.18.18-.04.34-.14.44-.3h1.35v-.35s0-.14-.17-.31h.19c.44.14.88.31,1.29.53.43.23.75.62.9,1.08h.1c.13,0,.19-.09.22-.28,0-.16.14-.28.3-.27,0,0,0,0,0,0h.52c.11.02.22.05.32.09h.64c.12,0,.25.02.36.08.11.04.19.14.21.26.05.14.08.29.09.44.01.16.01.32,0,.48.31.12.6.29.86.5.28.18.5.45.61.77,0,.1,0,.2,0,.3,0,.09,0,.19,0,.28.12.02.24.02.36,0,.1-.05.22-.08.34-.08h.14l.28.09h.19v.52c.07.13.17.25.27.36.1.1.17.22.23.35.09.2.13.41.13.63v.72c.02.29.02.58,0,.88-.05.3-.08.61-.08.91v.79c0,.26.05.51.14.75-.11.11-.24.2-.37.27l-.39.24s-.14,0-.34-.19c-.11-.1-.23-.17-.36-.22,0,.06,0,.13,0,.19,0,.09,0,.19.06.31l.08.32c0,.07,0,.14,0,.21,0,.07.03.13.08.18.03.04.05.09.06.14v.3c0,.16-.02.33-.09.48-.07.12-.21.19-.35.18-.16.02-.31-.08-.35-.23,0-.17-.12-.24-.23-.24h0c0,.2-.05.39-.14.57l-.31.46c-.12.14-.22.3-.34.45-.11.17-.18.36-.21.57.02-.09.02-.17,0-.26-.03-.08-.07-.15-.12-.22h-.06c-.1,0-.21.02-.3.08-.12.06-.26.09-.4.08v.84l-.12.09c-.06.01-.12.01-.18,0-.11.03-.22.03-.34,0h-.32l-.26.22s-.1.02-.14,0c-.05-.04-.07-.09-.08-.15.05-.04.08-.09.1-.14.03-.06.07-.1.12-.14v-.24c-.1,0-.17,0-.22-.18h-.08c-.04.07-.09.12-.15.17-.06.05-.1.11-.14.17v.14c.01.06.04.13.08.18.03.06.05.12.06.18-.19.16-.4.31-.62.44l-.45.34c-.08.06-.16.1-.24.14l.18.15-.36.68c-.14.12-.26.27-.36.43l-.34.45c0,.1.17.12.37,0,.12-.07.26-.11.4-.13h.1c.06-.04.1-.1.12-.17.01-.06.03-.12.06-.17h.26l.08-.26h.12c.06-.02.12-.02.18,0h0c.08.19.28.31.49.3.18,0,.36.02.53.08.03.05.07.1.12.14l.14.14c.18.19.44.3.71.28h.75c-.01.06-.01.12,0,.18v.15s0,.05,0,.08c-.11.07-.23.13-.36.15-.13.03-.26.09-.37.17v1.71c0,.13.05.19.15.19.15,0,.08-.12.1-.35s.06-.49.12-.76c.04-.24.1-.48.19-.71.09-.21.21-.3.39-.27l.44.62c0,.1,0,.2,0,.3.01.11.11.19.22.18.1,0,.21-.02.3-.08.08-.03.17-.03.24,0,.18,0,.3,0,.35.13.07.09.13.2.17.31h.77c-.09-.02-.18-.06-.26-.12-.09-.04-.17-.1-.22-.18v-.08h0s.06-.07.08-.12c0,0,0-.08.06-.08.17.08.34.14.52.19.15.04.3.08.44.14.16.03.33.03.49,0h.54s.06,0,.14.08h.18c-.01.09-.01.19,0,.28.02.08.05.16.09.23h.22c.06-.04.12-.08.19-.1h0c0-.07-.03-.14-.06-.21-.04-.05-.06-.11-.08-.17h0v-.08h.18l.28.09h.19v.08c.03.23-.06.46-.23.62-.16.13-.3.27-.43.44v.18c-.02.15-.1.29-.22.39-.09.06-.2.09-.31.09h-.57l.41.4s.02.07,0,.09c-.04.02-.09.02-.13,0-.17,0-.28,0-.32-.15-.05-.1-.08-.2-.09-.31,0-.1,0-.21,0-.31-.03-.1-.12-.16-.22-.14,0,0-.09.08,0,.26.03.16.03.33,0,.49-.03.15-.14.27-.28.31-.17,0-.45,0-.86-.3v-.98s-.05,0-.08,0l-.06-.08-.1.18c0,.05,0,.1,0,.15-.03.22-.03.44,0,.66v.7h.08s0-.1.09-.18c0-.06,0-.12,0-.18.12.1.23.22.32.35.09.11.15.24.15.39.01.09-.02.17-.08.23,0,0-.08.13-.08.27s0,.13,0,.08v-.23c.02-.11.06-.21.12-.31.03-.1.12-.16.22-.15l.44-.26.28-.18c.19-.09.3-.12.3,0l-.3,1.86c-.45-.03-.9.07-1.29.31-.33.21-.72.32-1.11.31h-.61c-.21-.03-.41-.1-.59-.19ZM294.15,136.28h.08c0-.1,0-.21,0-.31,0-.14.09-.26.22-.31h-.08v-.08h-.19l-.03.7ZM294.85,134.99c-.09,0-.14,0-.14.17s0,.17.14.17.12,0,.12-.17-.04-.12-.12-.12v-.05ZM295.29,135.61c-.09,0-.14,0-.14.17s0,.17.14.17.15,0,.15-.17-.05-.12-.15-.12v-.05ZM295.48,134.85h.14l-.14-.15v.15ZM295.62,134.04l.48.15c.15.02.31.02.46,0,0-.17,0-.27-.14-.31-.12-.02-.24-.02-.36,0h-.24c-.1,0-.19.07-.19.16,0,.01,0,.03,0,.04v-.05ZM295.77,140.48c-.08,0-.1,0-.1.17s0,.17.1.17.12,0,.12-.17-.04-.05-.12-.05v-.12ZM296.06,124.22c-.08,0-.12,0-.12.13s0,.13.12.13.14,0,.14-.13-.05-.01-.14-.01v-.12ZM296.98,136.9c0,.2.04.39.13.57.06.17.23.28.41.27h.15l.09-.12.23-.34v-.1s0-.05,0-.08l-.49-.13c-.18,0-.35.01-.53.04v-.12ZM297.41,132.88s0,.08,0,.12h0v1.49c.08,0,.12-.03.12-.08.06-.06.1-.14.1-.22.02-.09.04-.17.08-.26h.14l.14-.08v-.21c.02-.12.06-.24.1-.35,0-.18.09-.28.09-.31,0-.09-.05-.16-.13-.19-.09-.04-.19-.07-.28-.08-.1-.01-.19-.04-.27-.09-.09-.05-.14-.15-.13-.26,0,0-.09.1-.13.22-.01.09-.01.17,0,.26l.17.03ZM297.67,140.61h-.08c-.08,0-.13,0-.08,0s.06.12.09.12.06.09.06.01v-.13ZM297.99,131.59c-.07,0-.13.04-.14.11,0,0,0,.02,0,.03v.15l.14-.15h0v-.14ZM297.99,120.07c-.01.12.05.24.17.28.12.02.23.02.35,0v-.55c-.09.01-.17.03-.26.06-.08.02-.15.05-.22.09l-.04.12ZM297.99,140.47l.14.26c.05.09.11.16.19.22.03-.05.06-.11.09-.17.01-.06.01-.11,0-.17v-.14c.01-.06.01-.12,0-.18,0-.08-.08-.12-.09-.12h-.15c-.09,0-.14,0-.14.15v.06l-.04.08ZM298.14,137.18c.08-.08.14-.19.17-.3,0-.09,0-.19,0-.28v-.23c0-.09-.06-.17-.19-.22l-.14.22.17.81ZM298.33,134.44c-.1,0-.15,0-.15.17s0,.17.15.17.1,0,.1-.17-.04-.04-.1-.04v-.13ZM298.33,135.87c.12-.06.2-.2.18-.34h-.18v.34ZM300.22,137.16c-.13-.01-.25.06-.3.18-.02.11-.02.22,0,.34.17,0,.27,0,.31-.17,0-.09,0-.18-.01-.27v-.08ZM300.44,141.61c-.02.17.1.32.27.35.02,0,.05,0,.07,0h.62c0-.21-.12-.31-.35-.34h-.61ZM300.84,136.86c0,.22-.08.4-.1.54l-.08.41v.62c.05.05.1.11.14.17.07.1.15.2.23.28h.21c.07-.24.09-.49.06-.73,0,0,0-.06.08-.12h.08v-.21c.01-.12.01-.23,0-.35,0-.12,0-.23,0-.35v-.21l-.62-.06ZM301.28,131.34c0,.13.08.24.19.3v-.3h-.19ZM301.62,140.22l.18-.18-.18-.14v.32ZM302.9,139.94c0,.12,0,.18.09.19h.24c.1.03.2.08.27.15-.17-.02-.32.11-.34.28s.11.32.28.34.32-.11.34-.28c0-.03,0-.06,0-.09.02-.09.08-.17.15-.22h.06s.08.01.12,0v.32c0,.08.09.12.3.12v-.72c0-.31-.14-.52-.34-.59h-.32v-.58l-.77.84-.08.24ZM303.56,131.5l.15.44h.22s0-.08,0-.12c.03-.06.05-.12.06-.18l.12-.59c0-.09-.08-.08-.24,0-.1.1-.23.17-.37.19l.06.26ZM304.22,139.06v.22s.05-.14-.05-.14l.05-.08ZM304.41,139.28c-.1,0-.15,0-.15.14s0,.14.15.14.1,0,.1-.14-.09-.06-.15-.06l.05-.08ZM304.55,139.42c-.08,0-.12,0-.12.17s0,.17.12.17.08-.06.08-.17-.08-.09-.13-.09l.05-.08ZM304.66,139.9l.19-.14h-.19v.14ZM305.11,128.42s-.12.06-.17.17c-.06.11-.11.23-.15.35-.03.11-.05.23-.06.35v.17s.1-.06.17-.17.1-.23.14-.35c.04-.11.06-.23.08-.35.01-.03-.01-.09-.05-.09l.05-.08ZM305.79,140.52l.15-.14h-.15v.14Z"/><path class="cls-19_teacher-12" d="M328.23,142.43s0-.05,0-.08h0v-.08c0-.08,0-.15,0-.23-.02-.09-.07-.17-.13-.24-.03-.09-.07-.18-.13-.26-.06-.06-.1-.14-.13-.22v-.1l-.09-.3c-.02-.08-.05-.15-.09-.22-.06-.1-.13-.19-.21-.27-.08-.1-.16-.2-.23-.31-.01-.05-.01-.1,0-.15v-.48s-.01-.1,0-.14c.02-.08.05-.15.1-.22.05-.09.11-.18.18-.26,0,0,.06,0,.12-.08h0c.11-.08.24-.12.37-.13h.39l.24-.06.23-.08h.44c.09-.01.17-.04.24-.08.08-.01.16-.01.23,0l.14-.15.15-.14c.12-.05.25-.08.39-.09.13-.02.25-.05.37-.09l.22-.08c.07-.01.15-.01.22,0h.91c.06.07.11.15.15.23.06.13.13.22.18.23h.32c.03-.05.07-.1.12-.14.05-.06.1-.12.14-.18.04-.06.07-.13.08-.21l.06-.23.3-.15c.09-.04.17-.09.24-.15.06-.07.14-.11.23-.13l.3.14.09.09h.09s.1.01.14,0l.15-.09.23-.08.23-.06c.08-.09.18-.15.3-.18l.34-.15h.27c.1.02.21.02.31,0h.08s0-.08,0-.12h.15l.14.12h.48l.13.09c.06.01.13.01.19,0h1.47c.14-.02.27-.07.4-.13.14-.06.27-.13.4-.21l.08-.1.08-.15s.06,0,.14.08.12.08.14.08h.15l.15-.15c.09,0,.13-.12.13-.14h0c0,.11,0,.22,0,.34.01.11.04.22.08.32,0,.08.05.15.1.21.08.09.12.13.14.13h1.87c0-.1.13-.26.23-.49.07-.15.15-.29.24-.43.01-.07.05-.13.1-.18h.19c.16.07.32.11.49.13h.43s.09,0,.22.09h1.02c-.01.05-.01.1,0,.15.02.04.04.07.06.1.02.13.04.27.08.4.03.13.06.26.08.4l.23.22c.14.13.21.21.21.23.08.08.15.16.22.24.05.07.1.14.14.22l-.18.3s.06.1.18.14l.26.08v.99c.1,0,.14.1.14.18l.1.14c.02.06.05.11.09.15h.14c.05-.1.1-.21.14-.32l.15-.31.15-.18c.09,0,.14-.1.17-.1h.5c-.02.11-.04.21-.08.31,0,.15-.08.26-.1.31l-.15.31c-.03.1-.08.19-.14.27,0,.09-.04.18-.08.26-.03.07-.05.14-.06.22-.05.06-.12.11-.21.12-.08,0-.15,0-.23,0,0,0-.1-.08-.17-.15-.04-.07-.1-.13-.17-.17-.09-.01-.18-.01-.27,0h-.27c-.01-.08-.04-.15-.08-.22.01-.02.01-.04,0-.06l-.08-.08h-.18s-.06,0-.14.08l-.15.06h-.1c-.09,0-.18-.03-.27-.06-.08-.04-.16-.07-.24-.08-.07,0-.13-.04-.14-.11,0,0,0-.02,0-.03.06.01.12.01.18,0,.08,0,.13,0,.14-.09l.1-.17c.01-.05.01-.1,0-.15v-.08l-.1-.08h-.32l-.21.28-.23.35-.08.14v.14l-.1.09s0,.06,0,.09c-.04-.07-.09-.13-.14-.19-.08-.09-.14-.13-.18-.13h-.15c-.02.07-.04.15-.06.22-.04.07-.06.14-.08.22-.08.08-.16.17-.23.26-.08.08-.15.16-.21.26-.04-.07-.1-.14-.17-.19l-.17-.14h-.44l-.14.14-.18.19-.08.14s0,.05,0,.08h-.14l-.22.1-.22.08c-.06-.02-.12-.05-.17-.09-.04-.04-.1-.07-.15-.09h-.3c-.11.02-.22.02-.34,0-.03-.04-.05-.07-.06-.12l-.08-.14c0-.13,0-.19-.14-.19h-.15s-.06,0-.14.08l-.14.12c-.08-.01-.16-.01-.24,0-.08.01-.16.01-.23,0h-.37l-.62.12-.62.1-.34.06c-.13.03-.26.08-.37.14-.12.07-.25.12-.39.14-.11.03-.22.03-.34,0h-.28l-.34.34h-.44s-.1,0-.17.1c-.04.06-.08.11-.13.15h-1.1c-.09.01-.17.01-.26,0l-.32-.08-.34-.08h-.14c-.07.07-.14.12-.22.17-.06.06-.14.1-.22.13h-.31l-.17-.09-.19-.08c-.08-.04-.16-.07-.24-.08h-.14l-.08.08-.08.08-.09.15c-.02.06-.05.12-.09.17h-.08c-.12-.01-.25-.01-.37,0h-.68l-.15-.08h0s-.1,0-.18.12c-.06.05-.11.11-.15.18h-1.97l.15-.32c.04-.11.09-.23.14-.34v.03h0s.06-.03.06-.06c0-.02,0-.04-.03-.05ZM328.8,133.33c.01-.09.01-.19,0-.28v-1.22c.01-.05.01-.1,0-.15,0-.09-.06-.18-.1-.28l-.12-.28c0-.06,0-.13,0-.19-.01-.08-.01-.16,0-.23.02-.09.06-.17.13-.23l.14-.08.15-.08c.08-.03.15-.07.22-.13.08-.06.16-.11.26-.13h.14l.3.26s.14.1.35.17c.14.04.28.09.41.17h.15c.04-.09.08-.18.14-.26.08-.12.12-.19.14-.22s.14,0,.27,0c.09.05.18.08.28.09,0-.03,0-.07,0-.1,0-.06,0-.12,0-.18-.01-.09-.01-.17,0-.26,0-.13.1-.18.14-.18h.15s.08,0,.15.14.13.14.18.14h.37c.05.02.11.02.17,0,.04,0,.08,0,.12,0,.04-.07.07-.13.09-.21.03-.06.06-.12.1-.17.06,0,.1,0,.1-.14h.18s.07.11.09.17l.09.17c.02.07.06.13.12.18.04-.07.09-.13.14-.18.06-.06.11-.12.15-.19l.09-.13c.02-.06.05-.11.09-.15-.01.05-.01.1,0,.15,0,.09.06.13.09.13h.08c.07,0,.13-.04.14-.11,0,0,0-.02,0-.03v-.14c0-.08,0-.12-.14-.12.08-.07.18-.14.28-.18l.3-.14h.18s.06.1.08.15c.01.06.04.12.08.17h.09s.06.01.09,0h.4l.57-.15c.17-.03.33-.08.49-.14.05-.04.11-.06.17-.08.06.01.11.01.17,0h.32l.3-.31c.14-.17.24-.27.3-.32l.13.1c.06.01.11.01.17,0l.14-.08c.05-.04.11-.07.18-.08h.14l.15.08.14.08h.14l.22-.09.39-.19c.13-.05.26-.11.39-.18.08-.03.15-.08.22-.13l.4-.09.52-.09h.3l.18.12h.14c.18.02.35.02.53,0,.18.02.35.02.53,0l.06.08.09.08h.27s.06-.11.08-.17c0-.06,0-.11,0-.17.04,0,.08,0,.12,0h.22s.05,0,.08,0h.06c.02.06.04.12.08.17s.06.11.08.17h.14l.09-.12.09-.1h.59c-.02.06-.04.12-.08.18-.04.07-.07.14-.08.22v.1s0,.09.13.17l.17.17h.18c.1,0,.14,0,.14.1.01.07.04.15.06.22.02.09.05.17.09.26v.08s.08.02.12,0c-.01.05-.01.1,0,.14l.06.14.3-.14c0,.06,0,.11,0,.17.04.06.08.11.13.17l.13.09.17.09s-.1.1-.17.26-.1.24-.13.28v.08s0,.05,0,.08h.26c.07-.02.13-.06.18-.12l.26.62c.06-.02.12-.05.17-.09.06,0,.11,0,.17,0h.14v.34h-.31c-.11.01-.21.04-.31.08l-.48.48c0,.06,0,.11,0,.17-.01.06-.04.12-.08.17h-.58c-.09-.02-.18-.02-.27,0l-.24.09-.09.13c-.01.06-.01.11,0,.17l-.14.14h-.15s-.09-.06-.14-.08h-.14c-.15-.05-.31-.08-.46-.09-.15-.01-.31-.05-.45-.1-.09-.05-.17-.12-.24-.19l-.23-.24-.09.09s-.05.06-.06.1h-.28l-.24-.12c-.07-.04-.15-.07-.23-.08l-.44.44h-.14c-.05.01-.1.01-.15,0l-.14-.08h-.34l-.1.1h-.48s-.06,0-.13-.12-.12-.13-.17-.13h-.44c-.09.02-.17.06-.23.13-.07.06-.15.1-.24.12h-1.97c-.19-.01-.38-.01-.57,0h-.81c-.1,0-.2,0-.3,0l-.3.08c-.05.01-.1.04-.14.08h-.62c-.07.05-.14.08-.22.09l-.26.06c-.14.03-.29.03-.44,0h-.44c-.09.05-.18.11-.26.18-.07.06-.14.1-.22.14h-2.45c-.06.02-.11.05-.15.09-.04.04-.09.07-.14.09h-1.02c-.06.01-.13.01-.19,0l-.09.35ZM330.16,131.1h.18v-.15h-.18v.15ZM330.78,131.2h.15v-.1h-.21l.05.1ZM332.46,130.29l-.06.08c0,.09,0,.17,0,.26,0,.08,0,.15,0,.23,0,0,0,.08.06,0,.03-.09.03-.19,0-.28.02-.09.02-.19,0-.28ZM333.96,138.22l.14-.15h-.14v.15ZM335.65,138.7h.06s.09.08.12.08h.22v-.15h0l-.08-.06c-.08-.06-.08,0-.08-.08h-.01c-.05.05-.09.11-.13.17-.04,0-.07.01-.1.03v.03ZM335.83,137.61h-.12s0,.1.12.08M335.89,137.68s0-.05-.01-.08v.08ZM336.7,138.07c-.08,0-.12.05-.12.15,0,.09,0,.14.12.14.07,0,.13-.04.14-.11,0,0,0-.02,0-.03,0-.1-.05-.15-.14-.15h0ZM337.32,136.87c-.07,0-.13.04-.14.11,0,0,0,.02,0,.03,0,.1,0,.14.14.14s.1,0,.1-.14-.03-.14-.1-.14h0ZM343.24,135.78l-.31.32c-.15.17-.26.26-.31.26s0,0-.1.08c-.03,0-.05,0-.08,0v-.08s0-.07,0-.1l.23-.24.24-.23h.32ZM342.95,136.54v.15l-.15-.15h.15ZM343.1,129.09h-.08s0,.1.08.08c.03,0,.07-.01.08-.05,0,0,0-.02,0-.03,0,0-.03,0-.08,0h0ZM343.68,137.75s-.06,0-.06.17,0,.15.06.15c.08,0,.15-.05.15-.13,0,0,0-.02,0-.03,0-.12-.05-.17-.15-.17h0ZM344.45,128.02h-.09s.05.08.09.08c0,0,0-.03,0-.08h0ZM345.84,127.92h0s-.08,0-.08-.09.03.04.08.09ZM346.28,140.05v-.08s-.1,0-.1.08c.02.04.06.06.1.06v-.06ZM346.72,136.87v.14h-.12v-.14h.12ZM347.19,140.34v-.14h-.12l.12.14Z"/><path class="cls-19_teacher-12" d="M370.94,137.67h-.26c-.06,0-.12,0-.15-.17-.04-.12-.07-.24-.08-.36v-.61c-.12.02-.22.08-.28.18-.06.09-.16.15-.27.14v-1.02s-.04.01-.06,0c-.03,0-.05,0-.08,0,0,.05,0,.1,0,.15,0,.05,0,.09,0,.14h-.06l-.31-.04c-.07-.07-.12-.17-.14-.27l-.12-.31c0-.06,0-.12,0-.18l-.17-.34-.27-.54-.28-.55c-.06-.1-.1-.21-.13-.32-.01-.19-.03-.37-.06-.55l-.08-.45c0-.17,0-.28-.06-.39v-.22c.01-.26.05-.52.1-.77.05-.19.09-.38.1-.57.01-.12.04-.24.08-.35,0,0,.06,0,.18.06l.22.09h.22s0,.09,0,.13,0,.09,0,.13c0,.03,0,.06,0,.09,0,.04,0,.09,0,.13,0,.17,0,.26.09.27h.27c0-.12-.02-.23-.08-.34-.05-.08-.08-.18-.09-.27-.03-.07-.03-.15,0-.22.1-.09.21-.16.34-.21.17,0,.26,0,.26.12,0-.22.1-.35.26-.37h.48c0-.26-.06-.51-.19-.73-.13-.23-.36-.38-.62-.4-.11.13-.16.31-.13.48v.46c-.1-.01-.21-.01-.31,0-.12.02-.23.02-.35,0-.08.01-.16-.02-.21-.09,0,0,0-.19.13-.39.1.01.21-.02.3-.08.04-.04.07-.1.09-.15,0-.07,0-.14,0-.21,0-.09.03-.18.08-.26.08-.1.17-.19.27-.27.15-.13.34-.27.55-.43l.57-.41.32-.28s.07-.08.12-.1l.14-.12h0c.14,0,.27.09.37.36.07.19.16.36.28.52h.09c.09,0,.06-.08.09-.08-.02-.15-.07-.3-.14-.44-.08-.13-.13-.28-.15-.44.18,0,.27,0,.3-.18.03-.13.08-.26.14-.37,0-.11.04-.22.08-.32.02-.08.05-.15.1-.22h.08c0,.1,0,.21,0,.31.02.12.12.21.24.21h0c.09-.34.23-.67.4-.98.17-.31.41-.57.7-.77h0c.09.01.18.06.23.14.1.1.18.22.23.35.07.12.15.24.23.35.05.08.13.13.22.14,0,0,.06,0,.12-.13.08-.1.14-.2.19-.31,0-.12.12-.23.15-.34.04-.06.07-.13.08-.21v-.08c.06-.03.1-.07.14-.12l.12-.1v-.12c0-.11-.06-.22-.17-.26-.12-.06-.2-.19-.19-.32.17,0,.26,0,.27.1s.12.12.31.12c0-.11.02-.22.08-.31.05-.09.1-.18.15-.27.06-.1.12-.21.17-.32.06-.14.08-.3.08-.45,0-.17,0-.34-.08-.48s-.14-.24-.36-.3c.06.09.07.21.03.31-.05.05-.1.1-.17.13h-.09c-.09,0-.1-.09-.13-.09h-.14c-.05.01-.1.04-.13.09,0,.06-.1.09-.13.09s-.15,0-.15-.14l.15-.12s.06-.08.1-.1c0-.03,0-.05,0-.08,0-.03,0-.05,0-.08h-.08s0,.06-.09.1c-.05.02-.09.05-.13.09-.13-.3-.28-.44-.49-.43-.23.03-.46.03-.68,0,0,.12,0,.23,0,.35.02.07.02.15,0,.22-.06.04-.14.04-.21,0-.07,0-.13-.04-.18-.09-.08-.06-.12-.12-.12-.17l-.62.7h-.14c-.06-.01-.11-.06-.12-.12h-.06c-.07.02-.13.08-.15.15-.01.08-.01.16,0,.24-.27,0-.55.06-.8.17-.27.1-.55.17-.84.19,0,.17-.1.27-.22.27h-.59c-.06.02-.12.02-.18,0-.03-.14-.09-.28-.18-.4l-.3-.44c-.08-.14-.18-.27-.28-.39-.08-.08-.14-.17-.18-.27,0,0,.06,0,.06-.17v-.21c-.08-.13-.17-.26-.27-.39l-.43-.5c-.14-.18-.27-.37-.4-.55-.1-.14-.17-.31-.18-.49,0-.19,0-.3.13-.31h.41c.17,0,.35.03.5.1.14.08.29.12.45.12v-.85c-.01-.12-.01-.24,0-.36,0-.12.06-.17.12-.17.13-.03.25-.08.36-.14.08,0,.12-.09.13-.13,0-.04,0-.08,0-.12h.12c.14-.06.29-.08.44-.08.16.03.32.03.48,0,.1-.08.19-.18.26-.28.05-.08.15-.13.24-.12h.08l-.36.72c.26.07.52.13.79.17.26.03.53.03.79,0,.09,0,.15,0,.15-.06,0-.06,0-.12,0-.18,0-.07,0-.15,0-.22,0-.07.06-.13.13-.15,0,.06,0,.12,0,.18.02.08.06.15.13.19h.12c.07-.1.15-.2.23-.28.09-.08.18-.17.24-.27l.17-.09s.08,0,.12,0h.26c.09.05.18.12.26.19v.14c.02.11.02.22,0,.32-.02.11-.02.22,0,.34v.08l.06.09s.05.01.08,0c.08-.11.13-.25.13-.39v-.44c0-.12.04-.25.09-.36.05-.11.14-.2.26-.24v.77l.06.08c0,.06.1.08.15,0,.05-.08.09-.17.1-.27v-.1h0c.06-.02.13-.02.19,0,.17,0,.34.03.5.08.21,0,.32.15.34.34v.06c.01.05.01.1,0,.15-.01.05-.01.1,0,.14v.08s0,.12.14.13h.44s.09-.06.19-.06c.09.04.18.09.24.17l.41.39c.14.13.26.27.37.43.07.06.13.14.17.23.06.11.12.22.17.34.06.14.12.29.17.44,0,.14,0,.23.09.26h.28c.06,0,.14,0,.24.15.33.33.64.68.93,1.04.31.35.42.83.31,1.29.1-.07.21-.11.34-.1,0,.12,0,.23,0,.35,0,.06,0,.13,0,.19,0,.05,0,.1,0,.15-.01.07-.01.15,0,.22,0,.08.03.15.1.18,0,0,.09,0,.09.1.01.13-.08.25-.21.28-.12.03-.23.1-.31.19v.08s0,.05,0,.08l.09.1s0,.09,0,.14c0,.15-.13.36-.24.64s-.28.43-.48.43c-.11,0-.21-.04-.28-.12-.05-.07-.1-.15-.14-.23-.04-.09-.08-.18-.13-.26-.04-.08-.13-.13-.22-.13.01.18.05.35.12.52,0,.09.1.24.18.46h-.08c-.18,0-.35-.1-.45-.26-.11-.14-.24-.26-.39-.36-.04-.02-.08-.02-.12,0l-.06.09c.02.07.05.12.1.17l.24.27.23.28s.09.1.12.15c0,0-.08.09-.21.17s-.19.15-.17.21l-.48-.08c.02.19.06.38.13.55.09.24,0,.4-.09.48-.01-.1-.04-.2-.09-.28l-.21-.4c-.06-.13-.14-.24-.23-.35-.09-.09-.14-.14-.17-.14.05.25.07.51.08.76,0,.2-.04.39-.13.57-.09.19-.25.33-.45.39.01-.03.01-.07,0-.1,0-.18-.03-.36-.08-.54-.05-.17-.05-.36,0-.53v-.1s.01-.05,0-.08h-.09c-.11.11-.18.25-.19.4v.53c-.02.16-.06.32-.12.48-.04.12-.16.2-.28.19h0c-.13-.13-.25-.28-.34-.45-.07-.16-.22-.27-.4-.27.01.19.07.37.17.53.1.18.16.39.17.61,0,0-.08.12-.21.14l-.46.09c-.16.03-.31.09-.45.17-.14.08-.22.24-.21.4.04.26.13.51.26.75.14.23.21.48.22.75l-.22-.06c-.07-.03-.13-.07-.18-.12-.03,0-.05,0-.08,0l-.06-.08h-.15s-.08.04-.1.08c-.04.02-.08.02-.12,0-.03,0-.06,0-.09,0-.03-.02-.07-.02-.09,0l-.22.12h-.22c0,.14.08.28.21.35.13.09.21.25.19.41l-.44.59-.32.4c-.1.12-.15.18-.18.18-.08-.04-.14-.11-.19-.18-.04-.07-.09-.13-.14-.18v-.15l.21-.19c.08-.09.13-.14.13-.17.12-.06.27-.03.36.08v-.37c-.06-.02-.12-.02-.18,0,0,0-.06,0-.12.08s0,0-.1,0c-.15,0-.31-.04-.44-.12-.12-.07-.26-.1-.4-.1-.32-.03-.6.2-.63.52,0,.07,0,.14.02.2-.3.02-.6-.07-.85-.24-.18-.16-.41-.25-.66-.26h-.3l-.1-.1h-.08l-.1.08h0v.99c.09,0,.17-.04.22-.12l.13-.22c.04-.07.08-.14.13-.21.05-.05.11-.08.18-.09.08-.01.16.04.19.12.01.09.01.17,0,.26-.01.09-.01.17,0,.26,0,.06.06.1.17.1.03-.03.06-.06.1-.08l.15-.06h.1c-.04.07-.07.14-.09.22,0,.09,0,.17,0,.26,0,.06,0,.12,0,.18,0,.06.06.11.13.1,0,0,0,0,0,0,.11-.32.28-.62.49-.89.26-.36.49-.54.72-.57.09,0,.18.06.22.14.04.11.08.23.1.35.02.14.02.28,0,.43.02.12.02.24,0,.36l.31-.27c.1-.1.22-.19.35-.24.11,0,.22.06.28.15.09.11.17.23.23.36.07.14.13.3.18.45.04.13.09.26.15.39-.27.33-.42.74-.43,1.16-.03.43-.03.86,0,1.29,0,.12.03.24.1.34.06.11.1.22.13.34-.21.02-.42-.06-.57-.22-.12-.16-.31-.24-.5-.23,0,.04,0,.09,0,.13v.13s.06,0,.12.12.08.12.08.14h0s-.08.02-.12,0c-.09-.01-.18-.04-.26-.09l-.28-.13s-.7.1-.77.1ZM368.09,119.48s0-.08-.09-.08,0,0,0,.08,0,.06,0,.06c0,0,.09-.01.09-.06ZM368.79,131.82h.3c0-.12-.14-.21-.34-.24l.04.24ZM371.28,146.74s-.08,0-.12,0h-.1c-.1,0,0,0,0,0h-.08c0-.19,0-.32-.09-.36-.06-.07-.1-.16-.09-.26h.24c.1,0,.14-.1.13-.22l-.48-.52-.39-.35c-.08-.07-.17-.12-.27-.15h0c-.07.03-.13.08-.18.14-.08.08-.12.12-.12.14l-.4-.79c-.15-.26-.25-.55-.3-.85,0-.21.09-.31.26-.34.14-.01.27-.09.34-.22.24-.41.49-.82.75-1.29.25-.4.65-.68,1.11-.79,0,0,.06,0,.13-.08s.1,0,.13,0c.06-.01.11-.01.17,0,.06,0,.09.08.09.13,0-.07,0-.14,0-.21s0-.14,0-.21h.06c.15,0,.27.12.35.35.09.23.17.49.24.76s.14.53.22.77.15.4.26.43c0-.19,0-.31.14-.36.09.1.14.23.14.36.04.09.04.18,0,.27-.04.1-.07.21-.06.32h0c.03.05.07.1.13.13l.15.09h.12c0,.15.02.29.08.43.05.13.08.25.1.39.02.32-.22.6-.54.62-.01,0-.03,0-.04,0-.2.02-.39-.08-.48-.26-.1.09-.17.21-.21.35,0,.18-.12.37-.17.57-.04.18-.08.36-.14.53,0,.15-.09.23-.14.23-.05.01-.1.01-.15,0-.03.01-.07.01-.1,0h-.08c-.19,0-.3,0-.32.19s-.1.21-.22.21l-.08-.17ZM369.7,131.94s0,.07,0,.1c.02.05.04.11.06.15h.22v-.06c0-.12-.12-.18-.28-.18h-.06s.05-.01.03-.01h.04ZM369.82,119.14h.14v-.24h-.14v.24ZM369.96,135.38s-.06,0,0,.12,0,.13.09.13.1,0,.09-.13c.03-.06,0-.14-.05-.17-.06-.03-.14,0-.17.05h.04ZM369.96,131.06h.09c.1,0,.14-.14.13-.28s0-.24,0-.3c-.16.01-.29.15-.28.32,0,.03,0,.06.02.08l.04.18ZM369.96,134.75h.14v-.26h-.14v.26ZM370.32,142.83s-.06,0-.06.12,0,.15.06.1c.05-.02.08-.07.08-.13,0,0-.06-.09-.12-.09h.04ZM370.44,131.68c.31,0,.46-.13.46-.4h-.5l.04.4ZM370.44,142.25l.14-.12-.14-.14v.26ZM370.54,128.97c0,.07,0,.14,0,.21,0,.08.06.14.13.17.08-.04.14-.12.15-.21,0-.07,0-.14,0-.21l-.28.04ZM370.62,119.32s-.06.09,0,.17,0,.12.09.09.06,0,0-.13-.04-.1-.13-.1l.04-.03ZM371.02,145.45v-.14h-.14l.14.14ZM370.86,119.35c.04.09.06.19.06.28,0,.15.08.23.19.26s.12-.1.12-.26-.13-.28-.37-.28ZM371.16,120.25c-.09,0-.14,0-.14.15v.62h.22c0-.06,0-.12,0-.18,0-.05,0-.1,0-.15,0-.05,0-.09,0-.14v-.14c.03-.14,0-.21-.08-.21v.05ZM371.16,118.5c.08.08.19.12.3.12v-.34c-.1-.05-.19.03-.3.17v.05ZM371.32,145.12c.01.22.05.44.1.66.06.23.1.46.12.7.14,0,.24-.09.32-.26.06-.1.1-.22.12-.34-.09-.03-.16-.1-.19-.18-.02-.09-.05-.17-.09-.26-.04-.09-.08-.18-.13-.27-.05-.1-.14-.17-.24-.21v.15ZM371.82,129.95c0,.19.14.28.26.28s0-.34.13-.57c.18-.26.39-.5.62-.71.24-.23.5-.44.79-.62.17-.13.38-.22.59-.26-.11.01-.22.01-.34,0h-.3s-.12,0-.19.18c-.05.08-.1.15-.17.22-.05.01-.1.01-.14,0l-.15-.09h0c-.13,0-.23.1-.32.31s-.13.32-.13.35c-.01-.09-.05-.18-.1-.26-.08-.12-.13-.18-.18-.18s-.09-.14-.12-.14c.03.18-.01.36-.1.52-.13.15-.32.24-.52.24v.15c.06.04.11.11.13.18,0,.06,0,.12,0,.18.03-.06.07-.12.12-.17,0,0,.09-.09.14-.09h.13c0,.11-.02.22-.08.31-.03.06-.06.13-.06.21v-.05ZM371.53,128.37h.1v-.14h-.1v.14ZM372.19,144.55c-.11,0-.22.02-.31.08-.09,0-.12.14-.1.3.3-.03.44-.15.41-.35v-.03ZM371.86,143.5h.14l-.14-.1v.1ZM372.08,131.29c-.08,0-.1,0-.1.13s0,.13.1.13.08,0,.08-.13-.03-.1-.08-.1v-.03ZM372.08,145.98c-.08,0-.1.09-.09.18s0,.13.13.12.06,0,0-.15.05-.12,0-.12l-.04-.03ZM372.08,121.94l.14-.12h-.14v.12ZM372.08,131.55h0s0,.08.06.08.06,0,0,0c0-.02.01-.03.01-.05l-.08-.03ZM372.18,138.46h.57c.11,0,.21.07.24.18-.07.07-.12.16-.17.24-.06.1-.14.18-.23.23-.08,0-.15-.09-.23-.27,0-.13-.04-.25-.1-.36l-.08-.03ZM372.44,118.06c0,.07,0,.15,0,.22,0,.07.04.13.09.18v-.4h-.09ZM372.51,127.16h-.08s0,.09.08,0,.08,0,.08,0c0,0-.03.03-.08.03v-.03ZM372.67,127.77v.15s.06-.05.06-.09l-.06-.06ZM372.77,143.89h.34l-.22-.1-.12.1ZM373.79,117.18c-.28-.02-.53.19-.55.48,0,.05,0,.09,0,.14v.26c.15-.09.28-.21.39-.35.11-.14.16-.32.15-.5v-.03ZM373.33,118.02s-.08,0-.08.14,0,.15.08.15.14,0,.14-.15c-.01-.07-.07-.11-.14-.1v-.04ZM373.94,127.49s0,.13.17.26.19.18.27.18l.44-.99-.27-.08h-.53c-.04.08-.06.17-.06.26,0,.08,0,.16,0,.24v.13ZM374.27,118.28c-.06,0-.1,0-.09.13s0,.13.13.13.06,0,0-.13.01-.1-.04-.1v-.03ZM374.27,130s0-.17.12-.36l.14-.3h.22l.14.08c-.05.08-.08.17-.09.27-.02.09-.02.19,0,.28.02.15.05.3.1.44.04.18.15.33.3.44h-.08c-.24.03-.47-.07-.62-.26-.13-.16-.2-.36-.19-.57l-.04-.03ZM374.45,128.99c0,.06.03.11.09.12,0,0,.02,0,.03,0h.14c0-.07,0-.15,0-.22,0-.1,0-.14-.13-.12s0,0-.08.09c0,.05.02.11.04.15l-.09-.03ZM374.96,123.95c.01.32-.14.62-.4.8.01-.05.01-.1,0-.14-.01-.05-.01-.1,0-.15-.01-.14.02-.28.08-.4.01-.05.14-.08.36-.08l-.04-.03ZM374.78,119.63s.1,0,.18-.13c.08-.1.15-.2.21-.31,0-.13.12-.23.15-.34.04-.05.06-.12.08-.18-.03-.27-.27-.47-.54-.44,0,0,0,0,0,0h-.15l.08,1.39ZM374.78,121.16h.14c-.01-.1-.06-.19-.14-.26v.26ZM375.08,117.54c.05.16.17.3.32.37h0c-.05-.26-.15-.37-.32-.35v-.03ZM375.58,119.19c-.16,0-.3.11-.32.27-.05.15-.07.31-.08.46.16-.02.3-.14.35-.3.05-.13.07-.27.05-.41v-.03ZM375.66,121.28s-.08,0-.08.1,0,.12.08.12c.06,0,.11-.03.12-.09,0,0,0-.02,0-.03.05-.05-.04-.08-.12-.08v-.03ZM376.13,123.75c0,.08,0,.16,0,.24,0,.08.06.14.13.17v-.41h-.13ZM376.32,121.09h.15v-.1h-.15v.1ZM376.61,120.33c-.01.15-.01.29,0,.44,0,.14.12.21.28.18h.22l-.19-.66-.31.04ZM376.75,125.48s-.06,0-.06.13,0,.13.06.13c.08-.02.12-.09.12-.17,0-.1-.04-.13-.12-.1h0ZM377.05,123.43c0,.11.03.21.08.31.03.11.13.18.24.17h.12c-.02-.15.01-.29.08-.43.04-.15.04-.3,0-.45-.02-.09-.05-.18-.1-.26-.06-.08-.1-.16-.12-.26-.07.15-.16.29-.26.43-.05.16-.04.33.03.48h-.06ZM377.45,125.84c-.09.01-.15.08-.17.17-.02.07-.02.14,0,.21h.18v-.37ZM377.63,124.78v.18c-.01.07-.01.15,0,.22v.12h.1l-.1-.52ZM377.81,122.34h-.06s0,.09.06.09.08,0,.08-.09-.03-.01-.08-.01h0ZM378.98,126.4v.13c0,.06-.12.12-.09.15h0c-.07.18-.13.37-.18.55-.05.13-.09.26-.13.4,0,.13-.08.21-.09.26-.04.06-.09.11-.15.14l-.14.12s0-.05,0-.08v-.08c0-.19.03-.37.1-.54.07-.12.17-.23.28-.31.11-.09.2-.19.28-.3.08-.14.12-.3.12-.46h0ZM378.48,124.09h.14v-.14l-.14.14ZM379.64,123.39v.09c0,.09,0,.08,0,0,.04-.02.07-.06.08-.1h-.03s-.05.01-.05.01Z"/></g><g id="character_teacher-12"><path class="cls-11_teacher-12" d="M188.53,285.32s13.97-26.83,21.24-39.12c7.27-12.29,8.16-20.46,8.16-20.46l-18.14,8.04s-7.73,38.98-14.93,28.89c-7.2-10.09-1.29-11.3-1.29-11.3,0,0-.55-13.68-1.29-17.87s-7.32-27.52-15.46-28.27c-8.14-.75-10.05-2.58-10.05-2.58,0,0,1.12-5.97,3.35-6.34,2.18-.55,4.3-1.29,6.34-2.23l3.72-11.6.37-10.81s1.48-6.7,2.98-8.2,5.58-23.75-6.15-27.94c-11.73-4.19-24.32,19.33-24.32,19.33l-18.7,20.04,3.87,35.56c-7.91,1.82-14.1,7.95-16,15.84-3.61,13.74-8.08,42.36-8.08,42.36l1.88,7.27.91,7.73,81.59,1.66Z"/><path class="cls-20_teacher-12 targetColor" d="M127.57,439.86c-.2,1.55-.59,3.07-1.15,4.52-.99,2.87-2.56,5.5-4.61,7.73-2.07,2.25-4.84,3.73-7.86,4.23-1.57.3-3.2.02-4.57-.79-.83-.59-1.52-1.35-2.02-2.24-.69-1.11-1.13-2.36-1.29-3.66-.27-2.45.76-4.85,1.78-7.09l3.7-8.18c.4-1.02.96-1.97,1.68-2.8.86-.83,1.89-1.46,3.03-1.84,1.71-.74,3.55-1.11,5.41-1.07,1.98.1,4.37.99,5.15,2.9.89,2.67,1.15,5.5.76,8.29Z" style="fill: rgb(104, 225, 253);"/><path class="cls-20_teacher-12 targetColor" d="M135.38,428.88c-1.56,3.1-1.93,6.66-1.04,10.01.64,1.75,1.18,3.54,1.61,5.36.15,1.36.15,2.73,0,4.08-.12.61.03,1.24.41,1.74.58.45,1.41.41,1.95-.1.5-.51.87-1.13,1.07-1.82l1.6-4.1c.1-.26.26-.57.53-.62.23,0,.46.07.63.23,2.02,1.63,4.13,3.15,6.3,4.56,2.2,1.41,4.75,2.17,7.36,2.18,2.18-.21,4.31-.8,6.29-1.74,1.17-.48,2.5-1.1,2.86-2.31.22-.95-.06-1.95-.73-2.65-.67-.7-1.44-1.28-2.29-1.73-4.24-2.58-8.24-5.53-11.96-8.81-.67-.65-1.43-1.19-2.26-1.61-1.09-.37-2.24-.58-3.39-.62-2.21-.28-4.33-1.06-6.19-2.29-.68-.5-2.26-.75-2.74.23Z" style="fill: rgb(104, 225, 253);"/><path class="cls-18_teacher-12" d="M114.04,431.67c-1.04,3-2.47,5.93-2.68,9.08-.1.84.03,1.7.4,2.46.72,1.06,1.89,1.72,3.17,1.78,3.47.19,6.77-1.5,8.65-4.42,1.81-2.9,2.83-6.22,2.95-9.64.28-3.39.08-6.82.52-10.19,5.61-43.22,4.21-54.4,3.87-55.64-.66-2.58-3.6-3.71-6.2-4.12-2.82-.45-9.21-.41-9.61,2.94-.44,3.75,0,6.75.19,10.53.32,8.69.4,52.46-1.25,57.23Z"/><path class="cls-18_teacher-12" d="M138.11,380.93c-.08,4.45-.49,8.88-.79,13.31-.76,10.85-.9,21.75-1.04,32.63-.12,1.76.05,3.54.5,5.24.75,1.86,1.87,3.54,3.3,4.95.92,1.18,2.06,2.18,3.35,2.94,1.29.73,2.89.6,4.05-.32,1.13-1.3,1.54-3.07,1.12-4.74-.43-1.64-.94-3.26-1.55-4.85-.85-2.86,9.38-49.78,8.5-65.36.03-.68-.15-1.35-.5-1.93-.31-.4-2.78.22-3.22,0-2.27-.89-4.72-1.25-7.15-1.04-1.35.13-4.82.36-5.85,1.49-1.21,1.35-.72,6.37-.75,8.16-.03,3.22.09,6.38.03,9.52Z"/><path class="cls-17_teacher-12" d="M109.38,321.26c.99,14.32,3.12,28.62,2.47,42.92-.12.71.01,1.43.37,2.05.34.43.79.78,1.29,1.01,3.04,1.48,6.75,1.58,10.31,1.66l28.67.57c1.71,0,3.74,0,4.69-1.21.36-.51.59-1.1.66-1.71,3.86-19.69,6.9-39.47,9.12-59.34,1.15-10.12,2.02-20.62-1.93-30.19-13.71,2.26-24.37.26-38.31-.66-4.94-.32-10.1,3.17-14.39,17.74-2.51,8.82-3.51,18.01-2.95,27.16Z"/><path class="cls-9_teacher-12" d="M136.46,368.92l18.84.37c-.9.17-1.83.23-2.74.19l-28.67-.57c-3.53-.06-7.25-.18-10.31-1.66-.5-.23-.94-.57-1.29-1.01-.35-.63-.49-1.35-.39-2.06.66-14.32-1.53-28.62-2.46-42.94-.54-9.15.48-18.33,3-27.14,4.29-14.57,9.46-18.04,14.39-17.74,3,.19,5.85.45,8.61.7-3.65,1.61-7.27,6.35-10.42,17.05-2.54,8.81-3.57,17.98-3.04,27.14.93,14.32,3.12,28.62,2.46,42.94-.11.71.02,1.43.37,2.06.37.44.84.78,1.37,1.01,3.03,1.48,6.74,1.6,10.28,1.66Z"/><path class="cls-15_teacher-12" d="M165.5,278.05c-2.51,0-4.99,0-7.46-.19,2.27-.17,4.61-.43,7.05-.82.14.34.28.68.41,1.02Z"/><path class="cls-16_teacher-12" d="M158.05,277.84c-7.56.36-15.14.09-22.65-.79,1.24-.55,2.6-.79,3.96-.7,6.75.46,12.74,1.15,18.7,1.48Z"/><path class="cls-20_teacher-12 targetColor" d="M177.45,236.88c1.04,4.6,1.15,9.36,2.04,13.98,1.03,5.31,3.11,10.48,3.07,15.89.03.81-.08,1.62-.32,2.4-.57,1.42-1.7,2.55-3.12,3.12-3.87,1.7-8.63-.34-11.25-3.69s-3.57-7.73-4.21-11.88c-1.75-11.46-1.8-23.08-1.83-34.66,0-2.15-8.02-11.95-5.39-12.67,2.63-.72,12.36,8.85,13.52,10.73,3.41,5.14,5.94,10.81,7.5,16.78Z" style="fill: rgb(104, 225, 253);"/><path class="cls-14_teacher-12" d="M178.45,272.51c-3.75,1.22-8.12-.77-10.59-3.93-2.58-3.35-3.57-7.73-4.21-11.88-1.75-11.44-1.8-23.09-1.82-34.66,0-2.15-8.03-11.95-5.4-12.68.95-.26,2.71.72,4.65,2.16,1.29,3.2,7.32,20.81,7.33,22.38,0,11.6-1.68,11.35.08,22.8.64,4.2,1.58,8.53,4.21,11.88,1.47,1.87,3.47,3.24,5.75,3.93Z"/><path class="cls-20_teacher-12 targetColor" d="M113.24,214.28c-1.13,1.04-2.01,2.32-2.58,3.75-.91,2.73.21,5.72,1.56,8.27,2.76,5.15,6.44,9.77,9.72,14.7,3.27,4.94,2.36,8.83,2.58,14.7.28,6.44-5.89,15.88-7.13,22.2-.27,1.13-.33,2.3-.18,3.45.32,1.73,8.53,1.51,9.92,2.58,2.67,1.89,5.77,3.08,9.02,3.44,7.37,1.3,14.95.31,21.74-2.83,3.31-1.62,6.44-4.02,7.83-7.45.83-2.7,1.12-5.53.86-8.34-.1-5.85-4.43-11.17-1.82-16.42,1.37-2.74,3.34-5.15,4.6-7.99,2.33-5.28,2.01-11.36-.86-16.37-1.53-2.58-3.72-4.82-4.97-7.58-1.65-3.61-1.7-8.12-4.56-10.86-2.37-2.29-5.97-2.58-9.25-2.83-4.28-.28-3.87-1.29-8.17-1.58-3.54-.23-6.91-.95-10.4-.32-3.41.62-6.71,1.77-9.77,3.4-1.4.75-8.14,4.28-8.14,6.07Z" style="fill: rgb(104, 225, 253);"/><path class="cls-12_teacher-12" d="M152.54,286.58c-5.34,1.43-10.92,1.7-16.38.8-3.25-.37-6.35-1.55-9.02-3.43-1.39-1.08-9.6-.86-9.92-2.58-.15-1.15-.09-2.32.18-3.45,1.29-6.33,7.41-15.76,7.13-22.2-.24-5.88.59-9.78-2.58-14.72s-6.97-9.55-9.73-14.7c-1.37-2.58-2.49-5.55-1.55-8.29.48-1.44,2.98-6.55,10.71-9.82,3.13-1.49,6.41-2.63,9.78-3.4,2.05-.31,4.13-.33,6.19-.08-1.8.64-3.57,1.43-5.33,2.16-7.73,3.29-10.23,8.38-10.73,9.83-.93,2.73.19,5.72,1.56,8.27,2.76,5.15,6.44,9.77,9.72,14.7,3.27,4.94,2.35,8.83,2.58,14.69.27,6.44-5.89,15.88-7.13,22.22-.27,1.13-.33,2.3-.18,3.45.32,1.73,8.53,1.51,9.92,2.58,2.68,1.87,5.78,3.05,9.02,3.41,1.91.31,3.84.49,5.77.54Z"/><path class="cls-19_teacher-12" d="M139.72,218.21c1.44,1.1,3,2.04,4.64,2.81,1.55.8,3.13,1.55,4.72,2.27.18.11.39.16.61.13.18-.07.33-.19.43-.35.98-1.55,1.13-3.48.4-5.15-.61-1.7-1.64-3.22-2.35-4.88-.51-1.77-1.27-3.45-2.28-4.99-1.02-1.05-2.24-1.88-3.6-2.45-2.1-1.06-6.44-3.07-7.96-.13-1.29,2.41.62,6.35,1.8,8.45.92,1.64,2.14,3.1,3.6,4.29Z"/><path class="cls-17_teacher-12" d="M98.26,143.83c-2.7,1.96-4.76,4.67-5.93,7.8-1.82,4.36-2.58,9.59-.14,13.63,2.22,3.44,6.13,5.41,10.22,5.15,4.05-.33,7.78-2.32,10.31-5.49,3.5-4.24,7.23-14.17,3.2-19.2-3.71-4.61-13.13-4.94-17.65-1.89Z"/><path class="cls-13_teacher-12" d="M98.26,143.83c-2.7,1.96-4.76,4.67-5.93,7.8-1.82,4.36-2.58,9.59-.14,13.63,2.22,3.44,6.13,5.41,10.22,5.15,4.05-.33,7.78-2.32,10.31-5.49,3.5-4.24,7.23-14.17,3.2-19.2-3.71-4.61-13.13-4.94-17.65-1.89Z"/><path class="cls-17_teacher-12" d="M126.23,134.87c-1.5.14-2.96.54-4.33,1.17-4.82,1.91-8.92,5.27-11.75,9.61-1.68,2.91-2.91,6.05-3.63,9.33-1.36,4.6-1.69,9.44-.95,14.17.79,3.33,2.09,6.52,3.87,9.46.82,1.52,1.78,2.96,2.87,4.3,1.72,1.82,3.67,3.41,5.81,4.72,1.8,1.35,3.82,2.38,5.97,3.07,5.26,1.4,10.79-1.29,15.01-4.65,4.43-3.48,7.97-7.98,10.31-13.1,2.32-5.14,3.01-10.87,2-16.42-.54-2.48-1.34-4.9-2.38-7.22-2.01-4.64-4.64-8.12-9.61-9.55-4.63-1.3-8.08-5.22-13.17-4.9Z"/><path class="cls-18_teacher-12" d="M163.4,180.05c-.77,5.53-3.26,11.25-8.16,13.92-2.58,1.39-5.75,1.98-7.46,4.33-1.92,2.58-1.2,6.22-.88,9.45.09.57.05,1.16-.13,1.71-.51.85-1.35,1.45-2.32,1.64-2.63.83-5.39,1.16-8.14.97-1.26.1-2.37-.84-2.47-2.1,0-.01,0-.03,0-.04-1.04-3.87-.79-8.13-2.26-11.91-.92-1.97-1.95-3.89-3.09-5.73-2.57-5.19-4.11-10.82-4.52-16.6-.62-5.69-.76-11.42-.43-17.14.02-1.71.32-3.4.89-5.01.74-1.62,1.74-3.1,2.96-4.38,2.12-2.75,4.8-5.02,7.86-6.66,4.08-1.71,8.69-1.71,12.77,0,4.04,1.72,7.58,4.42,10.31,7.86,6.71,7.98,6.42,19.86,5.06,29.7Z"/><circle class="cls-8_teacher-12" cx="137.01" cy="171.59" r="9.69"/><circle class="cls-8_teacher-12" cx="157.82" cy="169.92" r="8.97"/><path class="cls-17_teacher-12" d="M137.73,129.18c5.03-2,10.55-2.42,15.82-1.21,7,1.6,13.58,6.44,15.58,13.39,1,3.83.81,7.88-.54,11.6-1.36,3.71-3.37,7.15-5.94,10.15-.12.18-.3.31-.5.36-.26,0-.48-.17-.67-.34-1.3-.97-2.79-1.64-4.38-1.96-7.94-2.35-15.35-6.16-22.87-9.63-1.78-.81-3.93-1.6-5.58-.54-1.11.92-1.83,2.22-2.02,3.65-1.35,5.05-2.14,10.24-2.36,15.46-2.33-3.14-4.17-6.61-5.45-10.31-1.03-3.04-1.53-6.24-1.48-9.45,0-2.28,0-4.74,1.37-6.6,1.37-1.86,3.2-1.29,5.15-2.06,1.56-.66,2.26-2.9,3.2-4.19,2.73-3.7,6.43-6.59,10.68-8.34Z"/><path class="cls-6_teacher-12" d="M137.73,129.18c5.03-2,10.55-2.42,15.82-1.21,7,1.6,13.58,6.44,15.58,13.39,1,3.83.81,7.88-.54,11.6-1.36,3.71-3.37,7.15-5.94,10.15-.12.18-.3.31-.5.36-.26,0-.48-.17-.67-.34-1.3-.97-2.79-1.64-4.38-1.96-7.94-2.35-15.35-6.16-22.87-9.63-1.78-.81-3.93-1.6-5.58-.54-1.11.92-1.83,2.22-2.02,3.65-1.35,5.05-2.14,10.24-2.36,15.46-2.33-3.14-4.17-6.61-5.45-10.31-1.03-3.04-1.53-6.24-1.48-9.45,0-2.28,0-4.74,1.37-6.6,1.37-1.86,3.2-1.29,5.15-2.06,1.56-.66,2.26-2.9,3.2-4.19,2.73-3.7,6.43-6.59,10.68-8.34Z"/><path class="cls-18_teacher-12" d="M120.69,167.77c-1.42.45-2.49,1.63-2.82,3.08-.82,2.95.48,6.07,2.1,8.67.91,1.46,2.22,3,3.94,2.96.48.03.95-.15,1.29-.5.41-.69.48-1.52.19-2.27-.55-2.85-.78-5.75-.71-8.65.08-1.79-1.31-3.31-3.1-3.38-.3-.01-.6.02-.89.08Z"/><path class="cls-3_teacher-12" d="M122.73,174.9c-.51-.3-.85-.83-.9-1.42,0-.52,0-1.1-.27-1.49-.26-.27-.62-.42-.99-.41-.31-.03-.62.03-.89.18-.45.44-.61,1.09-.43,1.69.35,1.9,1.42,3.58,2.99,4.7.41.35.94.5,1.47.44.69-.27,1.1-.98.99-1.71-.05-.68-.19-1.35-.43-2-.49.24-1.05.25-1.55.03Z"/><path class="cls-18_teacher-12" d="M108.51,312.83c.97,3.23,1.75,6.58,3.56,9.42s4.91,5.15,8.26,4.92c.71,0,1.4-.23,1.97-.66.4-.36.72-.8.94-1.29,1.57-3.16,1.93-7.19-.14-10.03-1.06-1.19-2.2-2.32-3.39-3.39-3.43-3.69-3.71-9.19-4.48-14.17-.99-5.59-2.39-11.11-4.19-16.49-.27-1.24-.87-2.38-1.75-3.3-.85-.61-1.83-1.02-2.86-1.2-3.03-.76-8.52-3.79-9.25.4-.62,3.52,1.73,9.02,2.8,12.28,2.56,7.85,5.9,15.58,8.54,23.5Z"/><path class="cls-20_teacher-12 targetColor" d="M182.54,247.19c.23-.06-.12-.34-.35-.27-.96.23-1.89.58-2.76,1.04-.87.48-1.53,1.28-1.83,2.23-.15.79-.13,1.6.06,2.38l2.29,13.67c.06,1,.46,1.95,1.15,2.68,1.29,1.03,3.11.39,4.5-.41.86-.49,1.68-1.02,2.47-1.58,1.14-.57,1.69-1.89,1.29-3.11-.29-4.5-1.02-8.95-2.16-13.31-.49-1.64-1.29-3.47-3-3.87-1.08-.12-2.18.1-3.13.62" style="fill: rgb(104, 225, 253);"/><path class="cls-18_teacher-12" d="M189.11,245.32c-1.93,1.48-3.52,3.36-4.65,5.52-.54,1.47-.81,3.03-.8,4.6-.21,2.47.2,4.95,1.19,7.23.44,1.07,1.32,1.9,2.41,2.27,1.52.36,2.98-.72,4.11-1.8,6.65-6.26,11.11-14.45,15.21-22.6.44-1.02,1.06-1.95,1.84-2.74.84-.65,1.77-1.17,2.76-1.55,3.45-1.61,6.77-4.5,7.1-8.29.09-.76-.03-1.52-.35-2.22-.86-1.64-3.02-2.01-4.87-2.11-1.61-.09-3.25-.14-4.87-.13-1.27-.08-2.54.15-3.7.66-3.44,1.82-2.58,6.78-4.7,9.63-3.19,4.17-6.76,8.04-10.67,11.55Z"/><path class="cls-20_teacher-12 targetColor" d="M102.65,234.57c-2.5,8.26-3.35,16.93-3.87,25.55-.38,3.18-.15,6.39.67,9.48,1.01,3.03,3.4,5.8,6.55,6.33,2.03.39,4.1-.37,5.41-1.96.87-1.37,1.36-2.94,1.42-4.56.4-5,1.31-9.95,2.71-14.77,1.52-4.39,3.97-8.4,6.04-12.56,3.78-7.59,6.73-20.53-2.96-25.35-8.97-4.46-14.12,11.75-15.97,17.83Z" style="fill: rgb(104, 225, 253);"/><path class="cls-4_teacher-12" d="M121.6,242.11c-2.07,4.16-4.51,8.16-6.03,12.56-1.41,4.81-2.33,9.75-2.73,14.74-.09,1.61-.57,3.18-1.42,4.56-1.31,1.59-3.38,2.34-5.4,1.96-2.59-.56-4.76-2.3-5.88-4.7.7.39,1.46.66,2.24.8,2.02.39,4.09-.34,5.41-1.92.85-1.38,1.34-2.95,1.42-4.56.4-5,1.31-9.95,2.72-14.77,1.52-4.39,3.97-8.4,6.04-12.56,2.87-5.76,5.26-14.64,1.97-20.62,8.09,5.21,5.26,17.28,1.65,24.51Z"/><path class="cls-20_teacher-12 targetColor" d="M104.14,268.67c-1.26-.6-2.55-1.12-3.87-1.58-.95-.27-1.94-.4-2.93-.41-.26-.03-.53.01-.77.12-.27.17-.49.42-.63.71-1.28,2.27-1.88,4.87-1.73,7.47,0,.42.1.83.3,1.2.28.36.65.64,1.07.81,4.7,2.41,9.97,4.21,15.18,3.39.92-.06,1.78-.48,2.38-1.19.29-.57.45-1.2.46-1.84.21-1.7.71-3.36,1.47-4.9.66-1.29.17-1.4-1.06-1.56-1.22-.15-2.29-.28-3.43-.48-2.21-.33-4.38-.91-6.46-1.74Z" style="fill: rgb(104, 225, 253);"/><polygon class="cls-18_teacher-12" points="209.57 225.33 256.71 158.09 257.96 158.88 212.7 226.08 209.57 225.33"/><polygon class="cls-5_teacher-12" points="209.57 225.33 256.71 158.09 257.96 158.88 212.7 226.08 209.57 225.33"/><path class="cls-7_teacher-12" d="M203.75,237.05l-7.82,11.46s1.82,2.58,3.63,1.53l7.82-12.42-3.63-.57Z"/></g></svg>